<svg xmlns="http://www.w3.org/2000/svg" width="22" height="25" viewBox="0 0 22 25" fill="none">
<g id="Group 527">
<path id="Vector" d="M20.3136 0.00390625H4.48273C3.49482 0.00390625 2.54737 0.396352 1.84882 1.09491C1.15026 1.79347 0.757813 2.74092 0.757812 3.72883V23.2847C0.757812 23.5316 0.855924 23.7685 1.03056 23.9431C1.2052 24.1178 1.44206 24.2159 1.68904 24.2159H18.4512C18.6982 24.2159 18.935 24.1178 19.1097 23.9431C19.2843 23.7685 19.3824 23.5316 19.3824 23.2847C19.3824 23.0377 19.2843 22.8008 19.1097 22.6262C18.935 22.4515 18.6982 22.3534 18.4512 22.3534H2.62027C2.62027 21.8595 2.8165 21.3857 3.16577 21.0365C3.51505 20.6872 3.98878 20.491 4.48273 20.491H20.3136C20.5606 20.491 20.7975 20.3929 20.9721 20.2182C21.1468 20.0436 21.2449 19.8067 21.2449 19.5597V0.935136C21.2449 0.688159 21.1468 0.451297 20.9721 0.276657C20.7975 0.102018 20.5606 0.00390625 20.3136 0.00390625ZM19.3824 18.6285H4.48273C3.82871 18.6276 3.18612 18.7999 2.62027 19.1279V3.72883C2.62027 3.23487 2.8165 2.76115 3.16577 2.41187C3.51505 2.06259 3.98878 1.86637 4.48273 1.86637H19.3824V18.6285Z" fill="#bbbbbb"/>
<g id="Group 526">
<path id="Vector_2" d="M12.6598 10.0623C12.6598 10.5031 12.4847 10.9258 12.1731 11.2375C11.8614 11.5492 11.4387 11.7243 10.9979 11.7243C10.5571 11.7243 10.1344 11.5492 9.82271 11.2375C9.51104 10.9258 9.33594 10.5031 9.33594 10.0623C9.33594 9.62156 9.51104 9.19884 9.82271 8.88716C10.1344 8.57549 10.5571 8.40039 10.9979 8.40039C11.4387 8.40039 11.8614 8.57549 12.1731 8.88716C12.4847 9.19884 12.6598 9.62156 12.6598 10.0623Z" fill="#bbbbbb"/>
<path id="Vector_3" fill-rule="evenodd" clip-rule="evenodd" d="M14.2931 11.9316C14.7002 11.817 15.0587 11.5726 15.314 11.2354C15.5693 10.8983 15.7075 10.487 15.7075 10.0641C15.7075 9.64122 15.5693 9.22991 15.314 8.89279C15.0587 8.55568 14.7002 8.31122 14.2931 8.19664C14.368 7.78819 14.3097 7.3665 14.1269 6.99365C13.9441 6.6208 13.6465 6.31647 13.2778 6.12548C12.909 5.93448 12.4887 5.86691 12.0787 5.93269C11.6687 5.99848 11.2907 6.19416 11.0002 6.49092C10.7098 6.19424 10.3318 5.99861 9.92189 5.93283C9.51196 5.86704 9.09174 5.93458 8.72307 6.12549C8.35439 6.3164 8.05673 6.62061 7.87389 6.99335C7.69104 7.36609 7.63267 7.78768 7.70736 8.19608C7.30028 8.31067 6.9418 8.55512 6.68647 8.89224C6.43115 9.22935 6.29297 9.64067 6.29297 10.0636C6.29297 10.4865 6.43115 10.8978 6.68647 11.2349C6.9418 11.572 7.30028 11.8165 7.70736 11.931C7.63235 12.3395 7.69049 12.7613 7.87322 13.1343C8.05595 13.5072 8.35361 13.8117 8.72236 14.0028C9.09112 14.1938 9.51149 14.2615 9.92157 14.1957C10.3316 14.1299 10.7098 13.9341 11.0002 13.6373C11.2907 13.934 11.6687 14.1296 12.0786 14.1954C12.4885 14.2612 12.9087 14.1937 13.2774 14.0027C13.6461 13.8118 13.9437 13.5076 14.1266 13.1349C14.3094 12.7621 14.3678 12.34 14.2931 11.9316ZM13.6887 8.31851C13.6746 8.35796 13.6695 8.4001 13.674 8.44177C13.6785 8.48344 13.6924 8.52354 13.7147 8.55907C13.7369 8.59459 13.7669 8.6246 13.8024 8.64684C13.838 8.66908 13.8781 8.68297 13.9197 8.68746C14.2598 8.7236 14.5745 8.88428 14.8031 9.13855C15.0318 9.39281 15.1583 9.7227 15.1583 10.0647C15.1583 10.4066 15.0318 10.7365 14.8031 10.9908C14.5745 11.2451 14.2598 11.4057 13.9197 11.4419C13.8781 11.4464 13.838 11.4603 13.8024 11.4825C13.7669 11.5047 13.7369 11.5347 13.7147 11.5703C13.6924 11.6058 13.6785 11.6459 13.674 11.6876C13.6695 11.7292 13.6746 11.7714 13.6887 11.8108C13.8041 12.1296 13.7986 12.4795 13.6733 12.7945C13.5479 13.1094 13.3114 13.3675 13.0085 13.5197C12.7057 13.672 12.3575 13.7079 12.0299 13.6206C11.7024 13.5333 11.4182 13.329 11.2312 13.0462C11.206 13.0082 11.1717 12.9769 11.1314 12.9554C11.0912 12.9338 11.0462 12.9225 11.0005 12.9225C10.9548 12.9225 10.9099 12.9338 10.8696 12.9554C10.8293 12.9769 10.7951 13.0082 10.7698 13.0462C10.5828 13.329 10.2986 13.5333 9.97109 13.6206C9.64354 13.7079 9.29535 13.672 8.99249 13.5197C8.68963 13.3675 8.45312 13.1094 8.32776 12.7945C8.20241 12.4795 8.19691 12.1296 8.31231 11.8108C8.32647 11.7713 8.33148 11.7291 8.32695 11.6874C8.32243 11.6457 8.30849 11.6056 8.28619 11.5701C8.26389 11.5345 8.23381 11.5045 8.19822 11.4823C8.16263 11.4601 8.12246 11.4463 8.08074 11.4419C7.74069 11.4057 7.42602 11.2451 7.19735 10.9908C6.96867 10.7365 6.84215 10.4066 6.84215 10.0647C6.84215 9.7227 6.96867 9.39281 7.19735 9.13855C7.42602 8.88428 7.74069 8.7236 8.08074 8.68746C8.12241 8.68297 8.16252 8.66908 8.19804 8.64684C8.23356 8.6246 8.26357 8.59459 8.28581 8.55907C8.30805 8.52354 8.32194 8.48344 8.32644 8.44177C8.33093 8.4001 8.32591 8.35796 8.31175 8.31851C8.19635 7.99978 8.20185 7.6498 8.32721 7.33485C8.45257 7.01991 8.68908 6.76187 8.99194 6.60962C9.2948 6.45737 9.64298 6.42148 9.97053 6.50875C10.2981 6.59601 10.5823 6.80038 10.7692 7.08313C10.7945 7.12118 10.8288 7.15239 10.869 7.17398C10.9093 7.19557 10.9543 7.20687 11 7.20687C11.0456 7.20687 11.0906 7.19557 11.1309 7.17398C11.1711 7.15239 11.2054 7.12118 11.2307 7.08313C11.4177 6.80038 11.7018 6.59601 12.0294 6.50875C12.3569 6.42148 12.7051 6.45737 13.008 6.60962C13.3108 6.76187 13.5474 7.01991 13.6727 7.33485C13.7981 7.6498 13.8036 7.99978 13.6882 8.31851" fill="#bbbbbb"/>
</g>
</g>
</svg>