<svg width="25" height="25" viewBox="0 0 25 25" fill="none" xmlns="http://www.w3.org/2000/svg">
<path d="M21.6088 5.47876H3.9054C3.34807 5.47876 2.92188 5.05257 2.92188 4.49524C2.92188 3.93791 3.34807 3.51172 3.9054 3.51172H21.6088C22.1661 3.51172 22.5923 3.93791 22.5923 4.49524C22.5923 5.05257 22.1661 5.47876 21.6088 5.47876Z" fill="#bbbbbb"/>
<path d="M15.7077 10.7249H3.9054C3.34807 10.7249 2.92188 10.2987 2.92188 9.74133C2.92188 9.18401 3.34807 8.75781 3.9054 8.75781H15.7077C16.265 8.75781 16.6912 9.18401 16.6912 9.74133C16.6912 10.2987 16.265 10.7249 15.7077 10.7249Z" fill="#bbbbbb"/>
<path d="M21.6088 15.969H3.9054C3.34807 15.969 2.92188 15.5428 2.92188 14.9855C2.92188 14.4281 3.34807 14.002 3.9054 14.002H21.6088C22.1661 14.002 22.5923 14.4281 22.5923 14.9855C22.5923 15.5428 22.1661 15.969 21.6088 15.969Z" fill="#bbbbbb"/>
<path d="M15.7077 21.2151H3.9054C3.34807 21.2151 2.92188 20.7889 2.92188 20.2316C2.92188 19.6742 3.34807 19.248 3.9054 19.248H15.7077C16.265 19.248 16.6912 19.6742 16.6912 20.2316C16.6912 20.7889 16.265 21.2151 15.7077 21.2151Z" fill="#bbbbbb"/>
</svg>
