<svg xmlns="http://www.w3.org/2000/svg" width="24" height="24" viewBox="0 0 24 24" fill="none">
<g id="Group 525">
<g id="Group">
<path id="Vector" d="M6.44749 14.2852C5.96276 14.2859 5.48403 14.3924 5.0447 14.5972C4.60538 14.802 4.21605 15.1003 3.90388 15.4711C3.59171 15.8419 3.36423 16.2764 3.23731 16.7442C3.1104 17.2121 3.0871 17.7019 3.16904 18.1797C3.25099 18.6575 3.43621 19.1116 3.71177 19.5104C3.98734 19.9091 4.34661 20.243 4.76451 20.4886C5.18241 20.7342 5.64888 20.8856 6.13135 20.9324C6.61382 20.9791 7.10068 20.9199 7.55794 20.7591" stroke="#bbbbbb" stroke-width="1.66568" stroke-linecap="round" stroke-linejoin="round" fill="#bbbbbb"/>
<path id="Vector_2" d="M3.40958 16.0662C2.74505 15.7463 2.17064 15.2659 1.73819 14.6685C1.30574 14.071 1.02887 13.3753 0.932563 12.6441C0.836257 11.9129 0.923547 11.1692 1.18655 10.4801C1.44956 9.79107 1.88001 9.17836 2.43905 8.69728M2.47236 8.60733C2.10818 8.06237 1.94856 7.40614 2.02176 6.7548C2.09496 6.10345 2.39626 5.49902 2.87232 5.04849C3.34838 4.59797 3.96849 4.33041 4.62287 4.29319C5.27726 4.25596 5.92371 4.45148 6.44778 4.84512M6.71207 4.9173C6.53492 4.5409 6.44463 4.12951 6.44787 3.71352C6.4511 3.29754 6.54778 2.8876 6.73076 2.51401C6.91374 2.14041 7.17834 1.81272 7.50501 1.55515C7.83167 1.29757 8.21205 1.1167 8.61801 1.02591C9.02398 0.935118 9.44516 0.936722 9.85043 1.0306C10.2557 1.12449 10.6347 1.30824 10.9594 1.5683C11.2841 1.82835 11.5462 2.15805 11.7263 2.53303C11.9064 2.908 12 3.31867 12 3.73466M12 3.73466V20.9467M12 3.73466C12.0001 3.31867 12.0937 2.908 12.2738 2.53303C12.4539 2.15805 12.716 1.82835 13.0407 1.5683C13.3654 1.30824 13.7444 1.12449 14.1497 1.0306C14.5549 0.936722 14.9761 0.935118 15.3821 1.02591C15.788 1.1167 16.1684 1.29757 16.4951 1.55515C16.8217 1.81272 17.0863 2.14041 17.2693 2.51401C17.4523 2.8876 17.549 3.29754 17.5522 3.71352C17.5555 4.12951 17.4652 4.5409 17.288 4.9173M12 20.9467C12 21.5357 11.7661 22.1006 11.3496 22.5171C10.9331 22.9336 10.3682 23.1676 9.77914 23.1676C9.19012 23.1676 8.62522 22.9336 8.20872 22.5171C7.79222 22.1006 7.55824 21.5357 7.55824 20.9467M12 20.9467C12 21.5357 12.234 22.1006 12.6505 22.5171C13.067 22.9336 13.6319 23.1676 14.221 23.1676M12 6.51079C12 7.39433 12.351 8.24167 12.9758 8.86642C13.6005 9.49117 14.4479 9.84215 15.3314 9.84215M21.561 8.69728C22.0459 9.11377 22.4348 9.63022 22.7013 10.2112C22.9677 10.7922 23.1053 11.4239 23.1046 12.0631C23.1046 12.8437 22.9036 13.5777 22.5493 14.2151M21.5277 8.60733C21.8919 8.06237 22.0515 7.40614 21.9783 6.7548C21.9051 6.10345 21.6038 5.49902 21.1278 5.04849C20.6517 4.59797 20.0316 4.33041 19.3772 4.29319C18.7228 4.25596 18.0764 4.45148 17.5523 4.84512" stroke="#bbbbbb" stroke-width="1.66568" stroke-linecap="round" stroke-linejoin="round" fill="#bbbbbb"/>
</g>
<path id="Vector_3" d="M19.8688 15.9062L20.0511 15.7158L20.0519 15.7149L20.0519 15.7149C20.1794 15.5874 20.3368 15.5253 20.5206 15.5287L20.5207 15.5287C20.7035 15.5324 20.8599 15.5979 20.9868 15.7248L22.046 16.784C22.1729 16.9109 22.2369 17.0662 22.2369 17.2465C22.2369 17.4268 22.1729 17.582 22.046 17.7089L22.0451 17.7098L22.0451 17.7098L21.8546 17.8921L22.229 18.2664C22.3617 18.3991 22.4279 18.5649 22.4279 18.7598C22.4279 18.9547 22.3617 19.1204 22.229 19.2529L19.8688 15.9062ZM19.8688 15.9062L19.8304 15.9463M19.8688 15.9062L19.8304 15.9463M18.059 16.0007C17.9262 16.1332 17.8601 16.2993 17.8601 16.495C17.8601 16.6903 17.9262 16.8564 18.059 16.9892L18.0591 16.9892L18.7521 17.6797L17.5861 18.8457L16.8934 18.1529C16.7609 18.0201 16.5952 17.954 16.4003 17.954C16.2054 17.954 16.0396 18.0201 15.9069 18.1529L15.9068 18.1529L15.9065 18.1532L15.4559 18.6114C15.4558 18.6115 15.4557 18.6115 15.4557 18.6116C15.3232 18.7442 15.257 18.9089 15.257 19.102C15.257 19.2953 15.3232 19.4601 15.4559 19.5927L15.8249 19.9618L15.6699 20.1172C15.5371 20.2497 15.471 20.4153 15.471 20.6102C15.471 20.8052 15.5371 20.9709 15.6698 21.1037L16.6981 22.1319C16.825 22.2588 16.9802 22.3228 17.1605 22.3228C17.3408 22.3228 17.4961 22.2588 17.623 22.1319L17.809 21.9459L18.1781 22.3149C18.3107 22.4475 18.4755 22.5138 18.6687 22.5138C18.8619 22.5138 19.0266 22.4476 19.1592 22.3151C19.1593 22.315 19.1593 22.315 19.1594 22.3149L19.6176 21.8643L19.618 21.8639C19.7506 21.7309 19.8168 21.5652 19.8168 21.3705C19.8168 21.1758 19.7506 21.0102 19.6179 20.8775L18.9251 20.1847L20.0911 19.0187L20.7815 19.7117L20.7816 19.7118C20.9144 19.8446 21.0804 19.9107 21.2758 19.9107C21.4712 19.9107 21.6373 19.8446 21.7701 19.7118L22.2289 19.2529L18.0982 16.04M18.059 16.0007L18.0982 16.04M18.059 16.0007L18.059 16.0007L18.0982 16.04M18.059 16.0007L18.5179 15.5418C18.6507 15.4091 18.8164 15.3429 19.0113 15.3429C19.2063 15.3429 19.3719 15.4091 19.5044 15.5418M18.0982 16.04L18.5572 15.5811C18.6789 15.4593 18.8303 15.3984 19.0113 15.3984C19.1924 15.3984 19.3436 15.4593 19.4651 15.5811M19.5044 15.5418L19.5044 15.5418L19.4651 15.5811M19.5044 15.5418L19.4651 15.5811M19.5044 15.5418L19.4651 15.5811M19.8304 15.9463L19.8697 15.9856L19.8304 15.9463ZM21.5011 17.5385L20.2323 16.2697L20.3918 16.1184L20.3918 16.1184L20.3929 16.1174C20.4351 16.0751 20.4788 16.057 20.5255 16.057C20.5722 16.057 20.6159 16.0751 20.6581 16.1174L21.6534 17.1126C21.6956 17.1549 21.7138 17.1985 21.7138 17.2453C21.7138 17.292 21.6956 17.3357 21.6534 17.3779L21.6534 17.3779L21.6524 17.379L21.5011 17.5385ZM16.1863 20.3231L17.4475 21.5843L17.2921 21.7416C17.292 21.7417 17.292 21.7417 17.2919 21.7418C17.2498 21.7837 17.2061 21.8017 17.1593 21.8017C17.1125 21.8017 17.0688 21.7836 17.0266 21.7416L16.0291 20.7442C16.0291 20.7442 16.0291 20.7442 16.0291 20.7441C15.9872 20.702 15.9691 20.6583 15.9691 20.6114C15.9691 20.5647 15.9871 20.521 16.029 20.4788C16.029 20.4788 16.0291 20.4787 16.0291 20.4787L16.1863 20.3231ZM19.2563 21.502L19.2562 21.5021L18.8049 21.9557C18.8049 21.9557 18.8049 21.9557 18.8049 21.9557C18.7635 21.9971 18.7188 22.0157 18.6687 22.0157C18.6186 22.0157 18.5739 21.9971 18.5325 21.9557L15.8151 19.2383C15.7737 19.1969 15.7551 19.1521 15.7551 19.102C15.7551 19.0519 15.7737 19.0072 15.8151 18.9658L16.2687 18.5145L16.2688 18.5144C16.3107 18.4726 16.3543 18.4545 16.4011 18.4545C16.4482 18.4545 16.4919 18.4726 16.5337 18.5144L19.2562 21.237C19.2982 21.2792 19.3163 21.3229 19.3163 21.3697C19.3163 21.4165 19.2982 21.4601 19.2563 21.502ZM21.8599 18.9008L21.4086 19.3521C21.4086 19.3521 21.4085 19.3521 21.4085 19.3521C21.3663 19.3941 21.3226 19.4122 21.2758 19.4122C21.229 19.4122 21.1855 19.3941 21.1436 19.3522L18.4186 16.6272C18.3767 16.5853 18.3586 16.5418 18.3586 16.495C18.3586 16.4478 18.3767 16.4042 18.4186 16.3623L18.87 15.9109C18.9114 15.8695 18.9561 15.851 19.0062 15.851C19.0563 15.851 19.101 15.8695 19.1424 15.9109L21.8599 18.6284C21.9013 18.6698 21.9198 18.7145 21.9198 18.7646C21.9198 18.8147 21.9013 18.8594 21.8599 18.9008ZM19.1114 18.0416L19.7292 18.6594L18.5636 19.8227L17.9481 19.2072L19.1114 18.0416Z" fill="#bbbbbb" stroke="#bbbbbb" stroke-width="0.111045"/>
</g>
</svg>