<svg width="25" height="25" viewBox="0 0 25 25" fill="none" xmlns="http://www.w3.org/2000/svg">
<path d="M13.3942 2.76534C13.216 2.61299 12.9893 2.52928 12.7549 2.5293H5.87024C5.60939 2.5293 5.35923 2.63292 5.17479 2.81736C4.99034 3.00181 4.88672 3.25197 4.88672 3.51282V21.2162C4.88672 21.4771 4.99034 21.7272 5.17479 21.9117C5.35923 22.0961 5.60939 22.1997 5.87024 22.1997H19.6395C19.9004 22.1997 20.1506 22.0961 20.335 21.9117C20.5195 21.7272 20.6231 21.4771 20.6231 21.2162V9.41395C20.6231 9.27189 20.5923 9.13151 20.5329 9.00248C20.4735 8.87344 20.3868 8.75881 20.2788 8.66647L13.3942 2.76534ZM13.7384 5.64706L16.984 8.43043H13.7384V5.64706ZM18.656 20.2327H6.85376V4.49634H11.7714V9.41395C11.7714 9.6748 11.875 9.92496 12.0594 10.1094C12.2439 10.2939 12.494 10.3975 12.7549 10.3975H18.656V20.2327Z" fill="#bbbbbb"/>
</svg>
