<svg xmlns="http://www.w3.org/2000/svg" width="74" height="124" viewBox="0 0 74 124" fill="none">
  <path d="M7.02344 47.8945V76.7229C7.02344 84.3651 10.0632 91.6948 15.4685 97.1001C20.8738 102.505 28.2035 105.545 35.8457 105.545H38.1868C45.829 105.545 53.1648 102.505 58.5701 97.1001C63.9754 91.6948 67.009 84.3651 67.009 76.7229V47.8945" stroke="#BBBBBB" stroke-width="1.17667"/>
  <mask id="mask0_92_8325" style="mask-type:luminance" maskUnits="userSpaceOnUse" x="6" y="38" width="62" height="19">
    <path d="M6.35156 38.459H67.52V56.109H6.35156V38.459Z" fill="white"/>
  </mask>
  <g mask="url(#mask0_92_8325)">
    <mask id="mask1_92_8325" style="mask-type:luminance" maskUnits="userSpaceOnUse" x="6" y="38" width="62" height="19">
      <path d="M36.9795 38.457C20.0649 38.457 6.35547 42.4283 6.35547 47.3188C6.35547 52.2155 20.0649 56.1806 36.9795 56.1806C53.888 56.1806 67.5974 52.2155 67.5974 47.3188C67.5974 42.4283 53.888 38.457 36.9795 38.457Z" fill="white"/>
    </mask>
    <g mask="url(#mask1_92_8325)">
      <path d="M36.9795 38.457C20.0649 38.457 6.35547 42.4283 6.35547 47.3188C6.35547 52.2155 20.0649 56.1806 36.9795 56.1806C53.888 56.1806 67.5974 52.2155 67.5974 47.3188C67.5974 42.4283 53.888 38.457 36.9795 38.457Z" stroke="#BBBBBB" stroke-width="2.35334"/>
    </g>
  </g>
  <mask id="mask2_92_8325" style="mask-type:luminance" maskUnits="userSpaceOnUse" x="39" y="13" width="12" height="12">
    <path d="M39.6758 13.2949H50.658V24.2772H39.6758V13.2949Z" fill="white"/>
  </mask>
  <g mask="url(#mask2_92_8325)">
    <mask id="mask3_92_8325" style="mask-type:luminance" maskUnits="userSpaceOnUse" x="7" y="1" width="66" height="48">
      <path d="M9.08552 1.4043L72.5828 3.73312L70.9464 48.4159L7.44922 46.0871L9.08552 1.4043Z" fill="white"/>
    </mask>
    <g mask="url(#mask3_92_8325)">
      <mask id="mask4_92_8325" style="mask-type:luminance" maskUnits="userSpaceOnUse" x="6" y="1" width="68" height="49">
        <path d="M8.46045 1.37891L73.1344 3.75063L71.4552 49.6101L6.78125 47.2384L8.46045 1.37891Z" fill="white"/>
      </mask>
      <g mask="url(#mask4_92_8325)">
        <mask id="mask5_92_8325" style="mask-type:luminance" maskUnits="userSpaceOnUse" x="-18" y="0" width="98" height="100">
          <path d="M-13.8115 0.566406L79.078 3.97384L75.5909 99.2166L-17.3047 95.8153L-13.8115 0.566406Z" fill="white"/>
        </mask>
        <g mask="url(#mask5_92_8325)">
          <path d="M45.6032 14.8666C43.305 14.7808 41.3746 16.5642 41.2888 18.844C41.2091 21.1177 43.0047 23.0359 45.2968 23.1217C47.595 23.2014 49.5254 21.4241 49.6112 19.1443C49.6909 16.8707 47.8953 14.9524 45.6032 14.8666ZM45.2661 23.9245C42.5267 23.8204 40.3817 21.5283 40.4798 18.8134C40.5779 16.0923 42.8883 13.9658 45.6277 14.0638C48.3733 14.1619 50.5183 16.46 50.4202 19.175C50.3221 21.896 48.0117 24.0226 45.2661 23.9245Z" fill="#bbbbbb"/>
        </g>
      </g>
    </g>
  </g>
  <mask id="mask6_92_8325" style="mask-type:luminance" maskUnits="userSpaceOnUse" x="36" y="16" width="18" height="7">
    <path d="M36.5312 16.4336H53.7891V22.7092H36.5312V16.4336Z" fill="white"/>
  </mask>
  <g mask="url(#mask6_92_8325)">
    <mask id="mask7_92_8325" style="mask-type:luminance" maskUnits="userSpaceOnUse" x="7" y="1" width="66" height="48">
      <path d="M9.07771 1.40625L72.5749 3.73507L70.9386 48.4179L7.44141 46.089L9.07771 1.40625Z" fill="white"/>
    </mask>
    <g mask="url(#mask7_92_8325)">
      <mask id="mask8_92_8325" style="mask-type:luminance" maskUnits="userSpaceOnUse" x="6" y="1" width="68" height="49">
        <path d="M8.46827 1.38477L73.1422 3.75649L71.463 49.6159L6.78906 47.2442L8.46827 1.38477Z" fill="white"/>
      </mask>
      <g mask="url(#mask8_92_8325)">
        <mask id="mask9_92_8325" style="mask-type:luminance" maskUnits="userSpaceOnUse" x="-18" y="0" width="98" height="100">
          <path d="M-13.8075 0.570312L79.0819 3.97775L75.5948 99.2205L-17.3008 95.8192L-13.8075 0.570312Z" fill="white"/>
        </mask>
        <g mask="url(#mask9_92_8325)">
          <path d="M43.6735 22.1042C42.2517 22.0551 40.9402 21.8713 39.8738 21.5771C38.213 21.1236 37.3244 20.4372 37.2937 19.5976C37.257 18.5803 38.5256 17.6978 40.8544 17.1156C41.075 17.0665 41.2895 17.1952 41.3447 17.4097C41.3998 17.6242 41.2711 17.8449 41.0505 17.9C39.0036 18.4087 38.0905 19.1257 38.1027 19.5731C38.115 19.8918 38.642 20.4066 40.0883 20.8049C41.504 21.1971 43.3732 21.3687 45.3588 21.3013C49.8142 21.1542 52.5046 19.9102 52.4801 19.0828C52.4617 18.6538 51.6099 18.0532 49.7346 17.6733C49.5139 17.6304 49.373 17.4159 49.4159 17.2014C49.4588 16.9807 49.6733 16.8398 49.8939 16.8827C52.0511 17.3178 53.2523 18.09 53.2891 19.0583C53.3504 20.8785 49.3607 21.9693 45.3895 22.1103C44.8073 22.1287 44.2312 22.1287 43.6735 22.1042Z" fill="#bbbbbb"/>
        </g>
      </g>
    </g>
  </g>
  <mask id="mask10_92_8325" style="mask-type:luminance" maskUnits="userSpaceOnUse" x="28" y="25" width="3" height="12">
    <path d="M28.7031 25.8496H30.272V36.8319H28.7031V25.8496Z" fill="white"/>
  </mask>
  <g mask="url(#mask10_92_8325)">
    <mask id="mask11_92_8325" style="mask-type:luminance" maskUnits="userSpaceOnUse" x="7" y="1" width="66" height="48">
      <path d="M9.09724 1.4082L72.5945 3.73703L70.9582 48.4198L7.46094 46.091L9.09724 1.4082Z" fill="white"/>
    </mask>
    <g mask="url(#mask11_92_8325)">
      <mask id="mask12_92_8325" style="mask-type:luminance" maskUnits="userSpaceOnUse" x="6" y="1" width="68" height="49">
        <path d="M8.4917 1.38281L73.1656 3.75454L71.4864 49.614L6.8125 47.2423L8.4917 1.38281Z" fill="white"/>
      </mask>
      <g mask="url(#mask12_92_8325)">
        <mask id="mask13_92_8325" style="mask-type:luminance" maskUnits="userSpaceOnUse" x="-18" y="0" width="98" height="100">
          <path d="M-13.7763 0.570312L79.1132 3.97775L75.626 99.2205L-17.2695 95.8192L-13.7763 0.570312Z" fill="white"/>
        </mask>
        <g mask="url(#mask13_92_8325)">
          <path d="M29.2773 36.7148C29.0567 36.7026 28.879 36.5187 28.8912 36.2981L29.2099 27.4976C29.2222 27.277 29.406 27.1054 29.6328 27.1115C29.8534 27.1176 30.0311 27.3076 30.025 27.5282L29.7002 36.3287C29.6941 36.5494 29.5041 36.721 29.2773 36.7148Z" fill="#bbbbbb"/>
        </g>
      </g>
    </g>
  </g>
  <mask id="mask14_92_8325" style="mask-type:luminance" maskUnits="userSpaceOnUse" x="25" y="30" width="9" height="4">
    <path d="M25.5625 30.5527H33.407V33.6905H25.5625V30.5527Z" fill="white"/>
  </mask>
  <g mask="url(#mask14_92_8325)">
    <mask id="mask15_92_8325" style="mask-type:luminance" maskUnits="userSpaceOnUse" x="7" y="1" width="66" height="48">
      <path d="M9.08943 1.4082L72.5867 3.73703L70.9504 48.4198L7.45312 46.091L9.08943 1.4082Z" fill="white"/>
    </mask>
    <g mask="url(#mask15_92_8325)">
      <mask id="mask16_92_8325" style="mask-type:luminance" maskUnits="userSpaceOnUse" x="6" y="1" width="68" height="49">
        <path d="M8.46827 1.38672L73.1422 3.75844L71.463 49.6179L6.78906 47.2462L8.46827 1.38672Z" fill="white"/>
      </mask>
      <g mask="url(#mask16_92_8325)">
        <mask id="mask17_92_8325" style="mask-type:luminance" maskUnits="userSpaceOnUse" x="-18" y="0" width="98" height="100">
          <path d="M-13.8036 0.572266L79.0858 3.9797L75.5987 99.2225L-17.2969 95.8212L-13.8036 0.572266Z" fill="white"/>
        </mask>
        <g mask="url(#mask17_92_8325)">
          <path d="M32.7 32.1394L26.2773 31.9065C26.0567 31.9004 25.879 31.7104 25.8912 31.4898C25.8974 31.2691 26.0812 31.0975 26.308 31.1037L32.7306 31.3366C32.9512 31.3488 33.129 31.5327 33.1228 31.7533C33.1106 31.98 32.9267 32.1516 32.7 32.1394Z" fill="#bbbbbb"/>
        </g>
      </g>
    </g>
  </g>
  <mask id="mask18_92_8325" style="mask-type:luminance" maskUnits="userSpaceOnUse" x="27" y="28" width="5" height="8">
    <path d="M27.125 28.9824H31.8317V35.258H27.125V28.9824Z" fill="white"/>
  </mask>
  <g mask="url(#mask18_92_8325)">
    <mask id="mask19_92_8325" style="mask-type:luminance" maskUnits="userSpaceOnUse" x="7" y="1" width="66" height="48">
      <path d="M9.09724 1.41016L72.5945 3.73898L70.9582 48.4218L7.46094 46.0929L9.09724 1.41016Z" fill="white"/>
    </mask>
    <g mask="url(#mask19_92_8325)">
      <mask id="mask20_92_8325" style="mask-type:luminance" maskUnits="userSpaceOnUse" x="6" y="1" width="68" height="49">
        <path d="M8.4878 1.37891L73.1617 3.75063L71.4825 49.6101L6.80859 47.2384L8.4878 1.37891Z" fill="white"/>
      </mask>
      <g mask="url(#mask20_92_8325)">
        <mask id="mask21_92_8325" style="mask-type:luminance" maskUnits="userSpaceOnUse" x="-18" y="0" width="98" height="100">
          <path d="M-13.7919 0.568359L79.0975 3.9758L75.6104 99.2186L-17.2852 95.8173L-13.7919 0.568359Z" fill="white"/>
        </mask>
        <g mask="url(#mask21_92_8325)">
          <path d="M31.0318 33.7214C30.9276 33.7214 30.8235 33.6785 30.7499 33.5927L27.5692 30.1975C27.416 30.0382 27.4283 29.7808 27.5876 29.6337C27.7531 29.4805 28.0105 29.4927 28.1637 29.6521L31.3444 33.0473C31.4976 33.2127 31.4853 33.464 31.3199 33.6172C31.2402 33.6907 31.136 33.7275 31.0318 33.7214Z" fill="#bbbbbb"/>
        </g>
      </g>
    </g>
  </g>
  <mask id="mask22_92_8325" style="mask-type:luminance" maskUnits="userSpaceOnUse" x="27" y="28" width="5" height="6">
    <path d="M27.125 28.9824H31.8317V33.6891H27.125V28.9824Z" fill="white"/>
  </mask>
  <g mask="url(#mask22_92_8325)">
    <mask id="mask23_92_8325" style="mask-type:luminance" maskUnits="userSpaceOnUse" x="7" y="1" width="66" height="48">
      <path d="M9.09724 1.41016L72.5945 3.73898L70.9582 48.4218L7.46094 46.0929L9.09724 1.41016Z" fill="white"/>
    </mask>
    <g mask="url(#mask23_92_8325)">
      <mask id="mask24_92_8325" style="mask-type:luminance" maskUnits="userSpaceOnUse" x="6" y="1" width="68" height="49">
        <path d="M8.4878 1.37891L73.1617 3.75063L71.4825 49.6101L6.80859 47.2384L8.4878 1.37891Z" fill="white"/>
      </mask>
      <g mask="url(#mask24_92_8325)">
        <mask id="mask25_92_8325" style="mask-type:luminance" maskUnits="userSpaceOnUse" x="-18" y="0" width="98" height="100">
          <path d="M-13.7919 0.568359L79.0975 3.9758L75.6104 99.2186L-17.2852 95.8173L-13.7919 0.568359Z" fill="white"/>
        </mask>
        <g mask="url(#mask25_92_8325)">
          <path d="M27.727 33.5985C27.6289 33.5985 27.5247 33.5556 27.4451 33.4759C27.298 33.3104 27.3041 33.053 27.4696 32.9059L30.8893 29.7498C31.0548 29.6027 31.3121 29.6088 31.4592 29.7743C31.6124 29.9336 31.6063 30.191 31.4408 30.3442L28.0212 33.4943C27.9415 33.5678 27.8312 33.6046 27.727 33.5985Z" fill="#bbbbbb"/>
        </g>
      </g>
    </g>
  </g>
  <mask id="mask26_92_8325" style="mask-type:luminance" maskUnits="userSpaceOnUse" x="56" y="39" width="3" height="9">
    <path d="M56.9375 39.9648H58.5064V47.8093H56.9375V39.9648Z" fill="white"/>
  </mask>
  <g mask="url(#mask26_92_8325)">
    <mask id="mask27_92_8325" style="mask-type:luminance" maskUnits="userSpaceOnUse" x="7" y="1" width="66" height="48">
      <path d="M9.07771 1.4082L72.5749 3.73703L70.9386 48.4198L7.44141 46.091L9.07771 1.4082Z" fill="white"/>
    </mask>
    <g mask="url(#mask27_92_8325)">
      <mask id="mask28_92_8325" style="mask-type:luminance" maskUnits="userSpaceOnUse" x="6" y="1" width="68" height="49">
        <path d="M8.46436 1.38281L73.1383 3.75454L71.4591 49.614L6.78516 47.2423L8.46436 1.38281Z" fill="white"/>
      </mask>
      <g mask="url(#mask28_92_8325)">
        <mask id="mask29_92_8325" style="mask-type:luminance" maskUnits="userSpaceOnUse" x="-18" y="0" width="98" height="100">
          <path d="M-13.8115 0.568359L79.078 3.9758L75.5909 99.2186L-17.3047 95.8173L-13.8115 0.568359Z" fill="white"/>
        </mask>
        <g mask="url(#mask29_92_8325)">
          <path d="M57.4783 47.433C57.2577 47.4269 57.08 47.243 57.0861 47.0162L57.2822 41.709C57.2883 41.4822 57.4783 41.3106 57.7051 41.3229C57.9257 41.329 58.1034 41.5129 58.0912 41.7396L57.9012 47.0469C57.8889 47.2736 57.6989 47.4452 57.4783 47.433Z" fill="#bbbbbb"/>
        </g>
      </g>
    </g>
  </g>
  <mask id="mask30_92_8325" style="mask-type:luminance" maskUnits="userSpaceOnUse" x="53" y="43" width="8" height="2">
    <path d="M53.8047 43.1074H60.0803V44.6763H53.8047V43.1074Z" fill="white"/>
  </mask>
  <g mask="url(#mask30_92_8325)">
    <mask id="mask31_92_8325" style="mask-type:luminance" maskUnits="userSpaceOnUse" x="7" y="1" width="66" height="48">
      <path d="M9.08552 1.4082L72.5828 3.73703L70.9464 48.4198L7.44922 46.091L9.08552 1.4082Z" fill="white"/>
    </mask>
    <g mask="url(#mask31_92_8325)">
      <mask id="mask32_92_8325" style="mask-type:luminance" maskUnits="userSpaceOnUse" x="6" y="1" width="68" height="49">
        <path d="M8.46827 1.38281L73.1422 3.75454L71.463 49.614L6.78906 47.2423L8.46827 1.38281Z" fill="white"/>
      </mask>
      <g mask="url(#mask32_92_8325)">
        <mask id="mask33_92_8325" style="mask-type:luminance" maskUnits="userSpaceOnUse" x="-18" y="0" width="98" height="100">
          <path d="M-13.8036 0.568359L79.0858 3.9758L75.5987 99.2186L-17.2969 95.8173L-13.8036 0.568359Z" fill="white"/>
        </mask>
        <g mask="url(#mask33_92_8325)">
          <path d="M59.5668 44.6768L55.6875 44.5359C55.4668 44.5236 55.2891 44.3397 55.3014 44.1191C55.3075 43.8985 55.4975 43.7208 55.7181 43.733L59.5974 43.874C59.8181 43.8801 59.9958 44.0701 59.9897 44.2907C59.9774 44.5113 59.7936 44.6829 59.5668 44.6768Z" fill="#bbbbbb"/>
        </g>
      </g>
    </g>
  </g>
  <mask id="mask34_92_8325" style="mask-type:luminance" maskUnits="userSpaceOnUse" x="55" y="41" width="6" height="6">
    <path d="M55.3711 41.5352H60.0778V46.2418H55.3711V41.5352Z" fill="white"/>
  </mask>
  <g mask="url(#mask34_92_8325)">
    <mask id="mask35_92_8325" style="mask-type:luminance" maskUnits="userSpaceOnUse" x="7" y="1" width="66" height="48">
      <path d="M9.08552 1.4082L72.5828 3.73703L70.9464 48.4198L7.44922 46.091L9.08552 1.4082Z" fill="white"/>
    </mask>
    <g mask="url(#mask35_92_8325)">
      <mask id="mask36_92_8325" style="mask-type:luminance" maskUnits="userSpaceOnUse" x="6" y="1" width="68" height="49">
        <path d="M8.46827 1.38281L73.1422 3.75454L71.463 49.614L6.78906 47.2423L8.46827 1.38281Z" fill="white"/>
      </mask>
      <g mask="url(#mask36_92_8325)">
        <mask id="mask37_92_8325" style="mask-type:luminance" maskUnits="userSpaceOnUse" x="-18" y="0" width="98" height="100">
          <path d="M-13.8036 0.568359L79.0858 3.9758L75.5987 99.2186L-17.2969 95.8173L-13.8036 0.568359Z" fill="white"/>
        </mask>
        <g mask="url(#mask37_92_8325)">
          <path d="M58.5567 45.6306C58.4525 45.6306 58.3545 45.5877 58.2748 45.5019L56.3566 43.4549C56.2034 43.2895 56.2095 43.0382 56.375 42.885C56.5404 42.7318 56.7978 42.744 56.951 42.9095L58.8693 44.9564C59.0225 45.1219 59.0102 45.3732 58.8509 45.5264C58.7651 45.5999 58.6609 45.6367 58.5567 45.6306Z" fill="#bbbbbb"/>
          <path d="M56.5621 45.5583C56.4579 45.5583 56.3537 45.5154 56.2802 45.4296C56.127 45.2703 56.1392 45.0129 56.2986 44.8658L58.3639 42.9599C58.5293 42.8066 58.7867 42.8189 58.9399 42.9782C59.0931 43.1437 59.0809 43.4011 58.9154 43.5482L56.8562 45.4542C56.7705 45.5277 56.6663 45.5645 56.5621 45.5583Z" fill="#bbbbbb"/>
        </g>
      </g>
    </g>
  </g>
  <mask id="mask38_92_8325" style="mask-type:luminance" maskUnits="userSpaceOnUse" x="33" y="38" width="6" height="6">
    <path d="M33.3984 38.3984H38.1051V43.1051H33.3984V38.3984Z" fill="white"/>
  </mask>
  <g mask="url(#mask38_92_8325)">
    <mask id="mask39_92_8325" style="mask-type:luminance" maskUnits="userSpaceOnUse" x="7" y="1" width="66" height="48">
      <path d="M9.08552 1.40625L72.5828 3.73507L70.9464 48.4179L7.44922 46.089L9.08552 1.40625Z" fill="white"/>
    </mask>
    <g mask="url(#mask39_92_8325)">
      <mask id="mask40_92_8325" style="mask-type:luminance" maskUnits="userSpaceOnUse" x="6" y="1" width="68" height="49">
        <path d="M8.46045 1.38086L73.1344 3.75258L71.4552 49.612L6.78125 47.2403L8.46045 1.38086Z" fill="white"/>
      </mask>
      <g mask="url(#mask40_92_8325)">
        <mask id="mask41_92_8325" style="mask-type:luminance" maskUnits="userSpaceOnUse" x="-18" y="0" width="98" height="100">
          <path d="M-13.8115 0.568359L79.078 3.9758L75.5909 99.2186L-17.3047 95.8173L-13.8115 0.568359Z" fill="white"/>
        </mask>
        <g mask="url(#mask41_92_8325)">
          <path d="M35.9154 39.4557C35.8786 39.4557 35.8357 39.4557 35.7989 39.4557C35.4864 39.4679 35.2045 39.5844 35.039 39.7621C34.6897 40.1543 34.7142 40.7733 35.1003 41.1104C35.2842 41.2758 35.5783 41.3678 35.8786 41.3616C36.1728 41.3494 36.4363 41.2452 36.6018 41.0675C36.7734 40.8714 36.8776 40.6017 36.8776 40.3382C36.8776 40.0808 36.7795 39.854 36.6018 39.6947C36.4363 39.5537 36.185 39.4618 35.9154 39.4557ZM35.756 42.1645C35.3025 42.1461 34.8735 41.9867 34.561 41.711C33.8378 41.0736 33.7827 39.9582 34.4384 39.2289C34.7448 38.8857 35.229 38.6774 35.7622 38.6529C36.2954 38.6283 36.7918 38.7877 37.1411 39.0941C37.4904 39.4067 37.6865 39.8479 37.6865 40.3382C37.6865 40.7978 37.5088 41.2575 37.2085 41.6007C36.8959 41.9438 36.424 42.1461 35.9031 42.1645C35.8541 42.1645 35.8051 42.1645 35.756 42.1645Z" fill="#bbbbbb"/>
        </g>
      </g>
    </g>
  </g>
  <mask id="mask42_92_8325" style="mask-type:luminance" maskUnits="userSpaceOnUse" x="49" y="27" width="10" height="12">
    <path d="M49.0859 27.4141H58.4993V38.3963H49.0859V27.4141Z" fill="white"/>
  </mask>
  <g mask="url(#mask42_92_8325)">
    <mask id="mask43_92_8325" style="mask-type:luminance" maskUnits="userSpaceOnUse" x="7" y="1" width="66" height="48">
      <path d="M9.07771 1.41016L72.5749 3.73898L70.9386 48.4218L7.44141 46.0929L9.07771 1.41016Z" fill="white"/>
    </mask>
    <g mask="url(#mask43_92_8325)">
      <mask id="mask44_92_8325" style="mask-type:luminance" maskUnits="userSpaceOnUse" x="6" y="1" width="68" height="49">
        <path d="M8.46436 1.37695L73.1383 3.74868L71.4591 49.6081L6.78516 47.2364L8.46436 1.37695Z" fill="white"/>
      </mask>
      <g mask="url(#mask44_92_8325)">
        <mask id="mask45_92_8325" style="mask-type:luminance" maskUnits="userSpaceOnUse" x="-18" y="0" width="98" height="100">
          <path d="M-13.8115 0.572266L79.078 3.9797L75.5909 99.2225L-17.3047 95.8212L-13.8115 0.572266Z" fill="white"/>
        </mask>
        <g mask="url(#mask45_92_8325)">
          <path d="M50.4928 36.909C51.314 37.3809 52.172 37.4299 52.8155 37.3748C54.0351 37.2583 55.2546 36.6516 55.8491 35.8549C56.5968 34.856 56.8603 33.4403 56.5416 32.1656C56.2658 31.0563 55.5611 30.1861 54.5621 29.708C54.1944 29.5119 53.8144 29.3648 53.5264 29.279C53.5325 29.3036 53.5448 29.3281 53.5509 29.3526C53.9799 30.6089 54.4702 32.4659 53.8267 34.1083C53.0423 36.1123 51.4795 36.6945 50.4928 36.909ZM52.2149 38.1899C51.0995 38.1531 50.0761 37.7425 49.2916 37.0193C49.1752 36.9151 49.12 36.7252 49.1629 36.5781C49.2487 36.3023 49.5 36.2594 49.8125 36.2104C50.5541 36.1 52.2823 35.8365 53.0729 33.8203C53.6183 32.4168 53.171 30.7438 52.7849 29.61C52.7542 29.5181 52.7113 29.4323 52.6745 29.3526C52.5704 29.1197 52.4417 28.8378 52.6378 28.5865C52.8461 28.323 53.1955 28.3843 53.3487 28.4088C53.7164 28.4701 54.3476 28.6785 54.9298 28.991C56.131 29.561 56.9951 30.6273 57.3322 31.9756C57.706 33.4771 57.3874 35.144 56.5048 36.3329C55.7633 37.3196 54.3476 38.0428 52.889 38.1715C52.6623 38.196 52.4355 38.2021 52.2149 38.1899Z" fill="#bbbbbb"/>
        </g>
      </g>
    </g>
  </g>
  <mask id="mask46_92_8325" style="mask-type:luminance" maskUnits="userSpaceOnUse" x="33" y="38" width="7" height="4">
    <path d="M33.3984 38.3984H39.674V41.5362H33.3984V38.3984Z" fill="white"/>
  </mask>
  <g mask="url(#mask46_92_8325)">
    <mask id="mask47_92_8325" style="mask-type:luminance" maskUnits="userSpaceOnUse" x="7" y="1" width="66" height="48">
      <path d="M9.08552 1.40625L72.5828 3.73507L70.9464 48.4179L7.44922 46.089L9.08552 1.40625Z" fill="white"/>
    </mask>
    <g mask="url(#mask47_92_8325)">
      <mask id="mask48_92_8325" style="mask-type:luminance" maskUnits="userSpaceOnUse" x="6" y="1" width="68" height="49">
        <path d="M8.46045 1.38086L73.1344 3.75258L71.4552 49.612L6.78125 47.2403L8.46045 1.38086Z" fill="white"/>
      </mask>
      <g mask="url(#mask48_92_8325)">
        <mask id="mask49_92_8325" style="mask-type:luminance" maskUnits="userSpaceOnUse" x="-18" y="0" width="98" height="100">
          <path d="M-13.8115 0.568359L79.078 3.9758L75.5909 99.2186L-17.3047 95.8173L-13.8115 0.568359Z" fill="white"/>
        </mask>
        <g mask="url(#mask49_92_8325)">
          <path d="M34.4514 41.0417C34.2492 41.0356 34.0286 40.9866 33.8386 40.8395C33.5873 40.6434 33.4893 40.2756 33.5996 39.957C33.6976 39.6934 33.9366 39.5218 34.2124 39.528C34.4392 39.5402 34.6108 39.7241 34.6046 39.9447C34.6046 40.0673 34.5434 40.1776 34.4514 40.245C34.5556 40.2511 34.7088 40.2205 34.7885 40.2082C35.9345 40.0182 36.9396 39.8099 37.6321 39.1725C37.5831 39.1051 37.5524 39.0254 37.5524 38.9335C37.5586 38.7129 37.7363 38.5352 37.9631 38.5352C38.1775 38.5352 38.3737 38.6639 38.4533 38.8661C38.5759 39.1603 38.4288 39.5218 38.2388 39.7118C37.3134 40.6066 35.9897 40.8272 34.9233 41.0049C34.8008 41.0233 34.6353 41.0478 34.4514 41.0417Z" fill="#bbbbbb"/>
        </g>
      </g>
    </g>
  </g>
  <mask id="mask50_92_8325" style="mask-type:luminance" maskUnits="userSpaceOnUse" x="6" y="33" width="18" height="9">
    <path d="M6.72656 33.6895H23.9844V41.5339H6.72656V33.6895Z" fill="white"/>
  </mask>
  <g mask="url(#mask50_92_8325)">
    <mask id="mask51_92_8325" style="mask-type:luminance" maskUnits="userSpaceOnUse" x="7" y="1" width="66" height="48">
      <path d="M9.08162 1.4043L72.5788 3.73312L70.9425 48.4159L7.44531 46.0871L9.08162 1.4043Z" fill="white"/>
    </mask>
    <g mask="url(#mask51_92_8325)">
      <mask id="mask52_92_8325" style="mask-type:luminance" maskUnits="userSpaceOnUse" x="6" y="1" width="68" height="49">
        <path d="M8.46827 1.37891L73.1422 3.75063L71.463 49.6101L6.78906 47.2384L8.46827 1.37891Z" fill="white"/>
      </mask>
      <g mask="url(#mask52_92_8325)">
        <mask id="mask53_92_8325" style="mask-type:luminance" maskUnits="userSpaceOnUse" x="-18" y="0" width="98" height="100">
          <path d="M-13.8075 0.566406L79.0819 3.97384L75.5948 99.2166L-17.3008 95.8153L-13.8075 0.566406Z" fill="white"/>
        </mask>
        <g mask="url(#mask53_92_8325)">
          <path d="M13.9369 40.0244C12.3373 39.9631 10.8481 39.7241 9.7266 39.3503C8.61734 38.9764 8.07191 38.4432 8.09029 37.7691C8.14545 36.2309 11.5284 34.8274 12.4293 34.5884C14.5681 34.0246 16.7437 33.9633 18.4045 34.423C19.3667 34.6865 19.9244 35.2197 19.9367 35.8815C19.9489 36.3534 19.6731 36.8008 19.1154 37.2114C17.6323 38.3023 15.6038 38.6761 13.8266 38.192C13.7101 38.1613 13.6059 38.0694 13.563 37.9591C13.514 37.8426 13.5201 37.7078 13.5875 37.6036C14.4578 36.1144 16.4802 35.4158 18.0981 36.0409C18.3065 36.1205 18.4107 36.3534 18.331 36.5618C18.2452 36.764 18.0123 36.8682 17.8039 36.7886C16.7253 36.3718 15.42 36.7089 14.6355 37.5424C16.0206 37.7446 17.5098 37.3953 18.6313 36.5679C18.858 36.3963 19.1338 36.1451 19.1277 35.8999C19.1216 35.5751 18.6374 35.3238 18.1839 35.1951C16.664 34.7784 14.6416 34.8397 12.6376 35.3667C11.3935 35.6977 8.9299 36.9969 8.89925 37.7936C8.89312 38.0633 9.29148 38.3513 9.99012 38.5842C13.4159 39.7425 20.3534 39.4851 22.9151 36.7579C23.0683 36.5986 23.3257 36.5863 23.4912 36.7395C23.6505 36.8927 23.6628 37.144 23.5096 37.3095C21.5362 39.4054 17.4607 40.1531 13.9369 40.0244Z" fill="#bbbbbb"/>
        </g>
      </g>
    </g>
  </g>
  <mask id="mask54_92_8325" style="mask-type:luminance" maskUnits="userSpaceOnUse" x="22" y="0" width="4" height="11">
    <path d="M22.4141 0.744141H25.5518V10.1575H22.4141V0.744141Z" fill="white"/>
  </mask>
  <g mask="url(#mask54_92_8325)">
    <mask id="mask55_92_8325" style="mask-type:luminance" maskUnits="userSpaceOnUse" x="7" y="1" width="66" height="48">
      <path d="M9.08162 1.4082L72.5788 3.73703L70.9425 48.4198L7.44531 46.091L9.08162 1.4082Z" fill="white"/>
    </mask>
    <g mask="url(#mask55_92_8325)">
      <mask id="mask56_92_8325" style="mask-type:luminance" maskUnits="userSpaceOnUse" x="6" y="1" width="68" height="49">
        <path d="M8.46436 1.38672L73.1383 3.75844L71.4591 49.6179L6.78516 47.2462L8.46436 1.38672Z" fill="white"/>
      </mask>
      <g mask="url(#mask56_92_8325)">
        <mask id="mask57_92_8325" style="mask-type:luminance" maskUnits="userSpaceOnUse" x="-18" y="0" width="98" height="100">
          <path d="M-13.8115 0.574219L79.078 3.98166L75.5909 99.2244L-17.3047 95.8231L-13.8115 0.574219Z" fill="white"/>
        </mask>
        <g mask="url(#mask57_92_8325)">
          <path d="M23.9822 10.0237C23.7555 10.0176 23.5839 9.82758 23.59 9.60695L23.8597 2.35696C23.8658 2.13633 24.0558 1.96473 24.2764 1.97086C24.5031 1.97699 24.6747 2.16697 24.6686 2.3876L24.399 9.6376C24.3928 9.85822 24.209 10.0359 23.9822 10.0237Z" fill="#bbbbbb"/>
        </g>
      </g>
    </g>
  </g>
  <mask id="mask58_92_8325" style="mask-type:luminance" maskUnits="userSpaceOnUse" x="22" y="16" width="4" height="10">
    <path d="M22.4141 16.4336H25.5518V25.8469H22.4141V16.4336Z" fill="white"/>
  </mask>
  <g mask="url(#mask58_92_8325)">
    <mask id="mask59_92_8325" style="mask-type:luminance" maskUnits="userSpaceOnUse" x="7" y="1" width="66" height="48">
      <path d="M9.08162 1.40625L72.5788 3.73507L70.9425 48.4179L7.44531 46.089L9.08162 1.40625Z" fill="white"/>
    </mask>
    <g mask="url(#mask59_92_8325)">
      <mask id="mask60_92_8325" style="mask-type:luminance" maskUnits="userSpaceOnUse" x="6" y="1" width="68" height="49">
        <path d="M8.46436 1.38477L73.1383 3.75649L71.4591 49.6159L6.78516 47.2442L8.46436 1.38477Z" fill="white"/>
      </mask>
      <g mask="url(#mask60_92_8325)">
        <mask id="mask61_92_8325" style="mask-type:luminance" maskUnits="userSpaceOnUse" x="-18" y="0" width="98" height="100">
          <path d="M-13.8115 0.570312L79.078 3.97775L75.5909 99.2205L-17.3047 95.8192L-13.8115 0.570312Z" fill="white"/>
        </mask>
        <g mask="url(#mask61_92_8325)">
          <path d="M23.4471 24.5814C23.2203 24.5753 23.0487 24.3914 23.0548 24.1647L23.3061 17.4234C23.3122 17.2027 23.4961 17.0311 23.7229 17.0373C23.9496 17.0434 24.1212 17.2334 24.1151 17.454L23.8638 24.1953C23.8577 24.416 23.6677 24.5937 23.4471 24.5814Z" fill="#bbbbbb"/>
        </g>
      </g>
    </g>
  </g>
  <mask id="mask62_92_8325" style="mask-type:luminance" maskUnits="userSpaceOnUse" x="27" y="11" width="10" height="4">
    <path d="M27.125 11.7227H36.5384V14.8604H27.125V11.7227Z" fill="white"/>
  </mask>
  <g mask="url(#mask62_92_8325)">
    <mask id="mask63_92_8325" style="mask-type:luminance" maskUnits="userSpaceOnUse" x="7" y="1" width="66" height="48">
      <path d="M9.09724 1.4043L72.5945 3.73312L70.9582 48.4159L7.46094 46.0871L9.09724 1.4043Z" fill="white"/>
    </mask>
    <g mask="url(#mask63_92_8325)">
      <mask id="mask64_92_8325" style="mask-type:luminance" maskUnits="userSpaceOnUse" x="6" y="1" width="68" height="49">
        <path d="M8.4878 1.38086L73.1617 3.75258L71.4825 49.612L6.80859 47.2403L8.4878 1.38086Z" fill="white"/>
      </mask>
      <g mask="url(#mask64_92_8325)">
        <mask id="mask65_92_8325" style="mask-type:luminance" maskUnits="userSpaceOnUse" x="-18" y="0" width="98" height="100">
          <path d="M-13.7919 0.568359L79.0975 3.9758L75.6104 99.2186L-17.2852 95.8173L-13.7919 0.568359Z" fill="white"/>
        </mask>
        <g mask="url(#mask65_92_8325)">
          <path d="M34.7768 14.3262L27.8025 14.0749C27.5758 14.0627 27.4042 13.8788 27.4103 13.6582C27.4164 13.4376 27.6064 13.2598 27.8271 13.2721L34.8074 13.5234C35.028 13.5356 35.2057 13.7195 35.1935 13.9401C35.1874 14.1668 34.9974 14.3384 34.7768 14.3262Z" fill="#bbbbbb"/>
        </g>
      </g>
    </g>
  </g>
  <mask id="mask66_92_8325" style="mask-type:luminance" maskUnits="userSpaceOnUse" x="11" y="11" width="10" height="4">
    <path d="M11.4375 11.7227H20.8509V14.8604H11.4375V11.7227Z" fill="white"/>
  </mask>
  <g mask="url(#mask66_92_8325)">
    <mask id="mask67_92_8325" style="mask-type:luminance" maskUnits="userSpaceOnUse" x="7" y="1" width="66" height="48">
      <path d="M9.08162 1.4043L72.5788 3.73312L70.9425 48.4159L7.44531 46.0871L9.08162 1.4043Z" fill="white"/>
    </mask>
    <g mask="url(#mask67_92_8325)">
      <mask id="mask68_92_8325" style="mask-type:luminance" maskUnits="userSpaceOnUse" x="6" y="1" width="68" height="49">
        <path d="M8.46827 1.38086L73.1422 3.75258L71.463 49.612L6.78906 47.2403L8.46827 1.38086Z" fill="white"/>
      </mask>
      <g mask="url(#mask68_92_8325)">
        <mask id="mask69_92_8325" style="mask-type:luminance" maskUnits="userSpaceOnUse" x="-18" y="0" width="98" height="100">
          <path d="M-13.8075 0.566406L79.0819 3.97384L75.5948 99.2166L-17.3008 95.8153L-13.8075 0.566406Z" fill="white"/>
        </mask>
        <g mask="url(#mask69_92_8325)">
          <path d="M19.9061 13.7854L12.9258 13.528C12.7051 13.5219 12.5274 13.3319 12.5397 13.1113C12.5458 12.8907 12.7358 12.7129 12.9564 12.7252L19.9306 12.9826C20.1574 12.9887 20.329 13.1726 20.3228 13.3932C20.3167 13.62 20.1267 13.7916 19.9061 13.7854Z" fill="#bbbbbb"/>
        </g>
      </g>
    </g>
  </g>
  <mask id="mask70_92_8325" style="mask-type:luminance" maskUnits="userSpaceOnUse" x="16" y="14" width="7" height="6">
    <path d="M16.1406 14.8652H22.4162V19.5719H16.1406V14.8652Z" fill="white"/>
  </mask>
  <g mask="url(#mask70_92_8325)">
    <mask id="mask71_92_8325" style="mask-type:luminance" maskUnits="userSpaceOnUse" x="7" y="1" width="66" height="48">
      <path d="M9.08552 1.41211L72.5828 3.74093L70.9464 48.4237L7.44922 46.0949L9.08552 1.41211Z" fill="white"/>
    </mask>
    <g mask="url(#mask71_92_8325)">
      <mask id="mask72_92_8325" style="mask-type:luminance" maskUnits="userSpaceOnUse" x="6" y="1" width="68" height="49">
        <path d="M8.46827 1.38477L73.1422 3.75649L71.463 49.6159L6.78906 47.2442L8.46827 1.38477Z" fill="white"/>
      </mask>
      <g mask="url(#mask72_92_8325)">
        <mask id="mask73_92_8325" style="mask-type:luminance" maskUnits="userSpaceOnUse" x="-18" y="0" width="98" height="100">
          <path d="M-13.8075 0.578125L79.0819 3.98556L75.5948 99.2283L-17.3008 95.827L-13.8075 0.578125Z" fill="white"/>
        </mask>
        <g mask="url(#mask73_92_8325)">
          <path d="M17.7769 19.5232C17.6727 19.5232 17.5686 19.4803 17.495 19.3945C17.3418 19.2352 17.3541 18.9778 17.5134 18.8307L20.6941 15.9013C20.8534 15.7481 21.1108 15.7603 21.264 15.9197C21.4172 16.0851 21.4111 16.3364 21.2456 16.4896L18.065 19.419C17.9853 19.4926 17.8811 19.5293 17.7769 19.5232Z" fill="#bbbbbb"/>
        </g>
      </g>
    </g>
  </g>
  <mask id="mask74_92_8325" style="mask-type:luminance" maskUnits="userSpaceOnUse" x="25" y="7" width="7" height="5">
    <path d="M25.5625 7.01953H31.8381V11.7262H25.5625V7.01953Z" fill="white"/>
  </mask>
  <g mask="url(#mask74_92_8325)">
    <mask id="mask75_92_8325" style="mask-type:luminance" maskUnits="userSpaceOnUse" x="7" y="1" width="66" height="48">
      <path d="M9.08943 1.4043L72.5867 3.73312L70.9504 48.4159L7.45312 46.0871L9.08943 1.4043Z" fill="white"/>
    </mask>
    <g mask="url(#mask75_92_8325)">
      <mask id="mask76_92_8325" style="mask-type:luminance" maskUnits="userSpaceOnUse" x="6" y="1" width="68" height="49">
        <path d="M8.46827 1.38086L73.1422 3.75258L71.463 49.612L6.78906 47.2403L8.46827 1.38086Z" fill="white"/>
      </mask>
      <g mask="url(#mask76_92_8325)">
        <mask id="mask77_92_8325" style="mask-type:luminance" maskUnits="userSpaceOnUse" x="-18" y="0" width="98" height="100">
          <path d="M-13.8036 0.566406L79.0858 3.97384L75.5987 99.2166L-17.2969 95.8153L-13.8036 0.566406Z" fill="white"/>
        </mask>
        <g mask="url(#mask77_92_8325)">
          <path d="M26.7401 11.2685C26.6359 11.2623 26.5317 11.2194 26.4581 11.1398C26.3049 10.9743 26.3111 10.723 26.4765 10.5698L29.6511 7.64039C29.8166 7.4933 30.074 7.49943 30.2272 7.6649C30.3804 7.82424 30.3681 8.08164 30.2088 8.22872L27.0281 11.1581C26.9484 11.2378 26.8442 11.2685 26.7401 11.2685Z" fill="#bbbbbb"/>
        </g>
      </g>
    </g>
  </g>
  <mask id="mask78_92_8325" style="mask-type:luminance" maskUnits="userSpaceOnUse" x="14" y="13" width="7" height="6">
    <path d="M14.5703 13.2949H20.8459V18.0016H14.5703V13.2949Z" fill="white"/>
  </mask>
  <g mask="url(#mask78_92_8325)">
    <mask id="mask79_92_8325" style="mask-type:luminance" maskUnits="userSpaceOnUse" x="7" y="1" width="66" height="48">
      <path d="M9.09334 1.4043L72.5906 3.73312L70.9543 48.4159L7.45703 46.0871L9.09334 1.4043Z" fill="white"/>
    </mask>
    <g mask="url(#mask79_92_8325)">
      <mask id="mask80_92_8325" style="mask-type:luminance" maskUnits="userSpaceOnUse" x="6" y="1" width="68" height="49">
        <path d="M8.4878 1.37891L73.1617 3.75063L71.4825 49.6101L6.80859 47.2384L8.4878 1.37891Z" fill="white"/>
      </mask>
      <g mask="url(#mask80_92_8325)">
        <mask id="mask81_92_8325" style="mask-type:luminance" maskUnits="userSpaceOnUse" x="-18" y="0" width="98" height="100">
          <path d="M-13.7802 0.566406L79.1092 3.97384L75.6221 99.2166L-17.2734 95.8153L-13.7802 0.566406Z" fill="white"/>
        </mask>
        <g mask="url(#mask81_92_8325)">
          <path d="M15.2695 17.2348C15.1101 17.2286 14.9631 17.1306 14.9018 16.9774C14.8221 16.769 14.9263 16.5361 15.1346 16.4565L20.062 14.5628C20.2703 14.4831 20.5032 14.5811 20.589 14.7895C20.6687 14.9979 20.5645 15.2308 20.3561 15.3104L15.4288 17.2041C15.3737 17.2225 15.3185 17.2348 15.2695 17.2348Z" fill="#bbbbbb"/>
        </g>
      </g>
    </g>
  </g>
  <mask id="mask82_92_8325" style="mask-type:luminance" maskUnits="userSpaceOnUse" x="27" y="8" width="7" height="6">
    <path d="M27.125 8.58984H33.4006V13.2965H27.125V8.58984Z" fill="white"/>
  </mask>
  <g mask="url(#mask82_92_8325)">
    <mask id="mask83_92_8325" style="mask-type:luminance" maskUnits="userSpaceOnUse" x="7" y="1" width="66" height="48">
      <path d="M9.09724 1.41211L72.5945 3.74093L70.9582 48.4237L7.46094 46.0949L9.09724 1.41211Z" fill="white"/>
    </mask>
    <g mask="url(#mask83_92_8325)">
      <mask id="mask84_92_8325" style="mask-type:luminance" maskUnits="userSpaceOnUse" x="6" y="1" width="68" height="49">
        <path d="M8.4878 1.38086L73.1617 3.75258L71.4825 49.612L6.80859 47.2403L8.4878 1.38086Z" fill="white"/>
      </mask>
      <g mask="url(#mask84_92_8325)">
        <mask id="mask85_92_8325" style="mask-type:luminance" maskUnits="userSpaceOnUse" x="-18" y="0" width="98" height="100">
          <path d="M-13.7919 0.570312L79.0975 3.97775L75.6104 99.2205L-17.2852 95.8192L-13.7919 0.570312Z" fill="white"/>
        </mask>
        <g mask="url(#mask85_92_8325)">
          <path d="M27.5329 12.5211C27.3797 12.5149 27.2326 12.4169 27.1713 12.2637C27.0916 12.0553 27.1958 11.8224 27.4042 11.7427L32.3315 9.84903C32.5399 9.76936 32.7727 9.87354 32.8585 10.0819C32.9382 10.2842 32.834 10.517 32.6256 10.5967L27.6983 12.4904C27.6432 12.5149 27.588 12.5211 27.5329 12.5211Z" fill="#bbbbbb"/>
        </g>
      </g>
    </g>
  </g>
  <mask id="mask86_92_8325" style="mask-type:luminance" maskUnits="userSpaceOnUse" x="19" y="16" width="5" height="7">
    <path d="M19.2852 16.4336H23.9918V22.7092H19.2852V16.4336Z" fill="white"/>
  </mask>
  <g mask="url(#mask86_92_8325)">
    <mask id="mask87_92_8325" style="mask-type:luminance" maskUnits="userSpaceOnUse" x="7" y="1" width="66" height="48">
      <path d="M9.08943 1.40625L72.5867 3.73507L70.9504 48.4179L7.45312 46.089L9.08943 1.40625Z" fill="white"/>
    </mask>
    <g mask="url(#mask87_92_8325)">
      <mask id="mask88_92_8325" style="mask-type:luminance" maskUnits="userSpaceOnUse" x="6" y="1" width="68" height="49">
        <path d="M8.46827 1.38477L73.1422 3.75649L71.463 49.6159L6.78906 47.2442L8.46827 1.38477Z" fill="white"/>
      </mask>
      <g mask="url(#mask88_92_8325)">
        <mask id="mask89_92_8325" style="mask-type:luminance" maskUnits="userSpaceOnUse" x="-18" y="0" width="98" height="100">
          <path d="M-13.8036 0.570312L79.0858 3.97775L75.5987 99.2205L-17.2969 95.8192L-13.8036 0.570312Z" fill="white"/>
        </mask>
        <g mask="url(#mask89_92_8325)">
          <path d="M20.7182 21.2521C20.6691 21.2521 20.6201 21.2398 20.5772 21.2214C20.3688 21.1357 20.2708 20.8966 20.3627 20.6944L21.95 16.9683C22.0358 16.766 22.2748 16.668 22.4832 16.7538C22.6915 16.8457 22.7835 17.0786 22.6977 17.2808L21.1043 21.007C21.0368 21.1663 20.8836 21.2582 20.7182 21.2521Z" fill="#bbbbbb"/>
        </g>
      </g>
    </g>
  </g>
  <mask id="mask90_92_8325" style="mask-type:luminance" maskUnits="userSpaceOnUse" x="23" y="5" width="6" height="7">
    <path d="M23.9883 5.44727H28.695V11.7228H23.9883V5.44727Z" fill="white"/>
  </mask>
  <g mask="url(#mask90_92_8325)">
    <mask id="mask91_92_8325" style="mask-type:luminance" maskUnits="userSpaceOnUse" x="7" y="1" width="66" height="48">
      <path d="M9.08943 1.40234L72.5867 3.73117L70.9504 48.4139L7.45312 46.0851L9.08943 1.40234Z" fill="white"/>
    </mask>
    <g mask="url(#mask91_92_8325)">
      <mask id="mask92_92_8325" style="mask-type:luminance" maskUnits="userSpaceOnUse" x="6" y="1" width="68" height="49">
        <path d="M8.47217 1.37695L73.1461 3.74868L71.4669 49.6081L6.79297 47.2364L8.47217 1.37695Z" fill="white"/>
      </mask>
      <g mask="url(#mask92_92_8325)">
        <mask id="mask93_92_8325" style="mask-type:luminance" maskUnits="userSpaceOnUse" x="-18" y="0" width="98" height="100">
          <path d="M-13.8075 0.564453L79.0819 3.97189L75.5948 99.2147L-17.3008 95.8134L-13.8075 0.564453Z" fill="white"/>
        </mask>
        <g mask="url(#mask93_92_8325)">
          <path d="M25.3835 10.3263C25.3406 10.3263 25.2916 10.3141 25.2426 10.2957C25.0342 10.2099 24.9423 9.97086 25.0281 9.76862L26.6215 6.0425C26.7073 5.84026 26.9463 5.7422 27.1485 5.828C27.3569 5.91993 27.455 6.15281 27.363 6.35505L25.7758 10.0812C25.7083 10.2405 25.549 10.3324 25.3835 10.3263Z" fill="#bbbbbb"/>
        </g>
      </g>
    </g>
  </g>
  <mask id="mask94_92_8325" style="mask-type:luminance" maskUnits="userSpaceOnUse" x="17" y="7" width="6" height="5">
    <path d="M17.7031 7.01953H22.4098V11.7262H17.7031V7.01953Z" fill="white"/>
  </mask>
  <g mask="url(#mask94_92_8325)">
    <mask id="mask95_92_8325" style="mask-type:luminance" maskUnits="userSpaceOnUse" x="7" y="1" width="66" height="48">
      <path d="M9.07771 1.4043L72.5749 3.73312L70.9386 48.4159L7.44141 46.0871L9.07771 1.4043Z" fill="white"/>
    </mask>
    <g mask="url(#mask95_92_8325)">
      <mask id="mask96_92_8325" style="mask-type:luminance" maskUnits="userSpaceOnUse" x="6" y="1" width="68" height="49">
        <path d="M8.46436 1.38086L73.1383 3.75258L71.4591 49.612L6.78516 47.2403L8.46436 1.38086Z" fill="white"/>
      </mask>
      <g mask="url(#mask96_92_8325)">
        <mask id="mask97_92_8325" style="mask-type:luminance" maskUnits="userSpaceOnUse" x="-18" y="0" width="98" height="100">
          <path d="M-13.8115 0.566406L79.078 3.97384L75.5909 99.2166L-17.3047 95.8153L-13.8115 0.566406Z" fill="white"/>
        </mask>
        <g mask="url(#mask97_92_8325)">
          <path d="M21.1536 11.0574C21.0555 11.0574 20.9513 11.0145 20.8717 10.9349L17.9177 7.7787C17.7706 7.61323 17.7768 7.36196 17.9422 7.20875C18.1077 7.06166 18.359 7.06779 18.5122 7.23326L21.4661 10.3833C21.6193 10.5488 21.6132 10.8 21.4477 10.9533C21.3681 11.0268 21.2578 11.0636 21.1536 11.0574Z" fill="#bbbbbb"/>
        </g>
      </g>
    </g>
  </g>
  <mask id="mask98_92_8325" style="mask-type:luminance" maskUnits="userSpaceOnUse" x="25" y="14" width="6" height="8">
    <path d="M25.5625 14.8652H30.2692V21.1408H25.5625V14.8652Z" fill="white"/>
  </mask>
  <g mask="url(#mask98_92_8325)">
    <mask id="mask99_92_8325" style="mask-type:luminance" maskUnits="userSpaceOnUse" x="7" y="1" width="66" height="48">
      <path d="M9.08943 1.4082L72.5867 3.73703L70.9504 48.4198L7.45312 46.091L9.08943 1.4082Z" fill="white"/>
    </mask>
    <g mask="url(#mask99_92_8325)">
      <mask id="mask100_92_8325" style="mask-type:luminance" maskUnits="userSpaceOnUse" x="6" y="1" width="68" height="49">
        <path d="M8.46827 1.38672L73.1422 3.75844L71.463 49.6179L6.78906 47.2462L8.46827 1.38672Z" fill="white"/>
      </mask>
      <g mask="url(#mask100_92_8325)">
        <mask id="mask101_92_8325" style="mask-type:luminance" maskUnits="userSpaceOnUse" x="-18" y="0" width="98" height="100">
          <path d="M-13.8036 0.572266L79.0858 3.9797L75.5987 99.2225L-17.2969 95.8212L-13.8036 0.572266Z" fill="white"/>
        </mask>
        <g mask="url(#mask101_92_8325)">
          <path d="M29.483 19.952C29.3789 19.952 29.2747 19.9091 29.2011 19.8233L26.2472 16.6732C26.094 16.5078 26.1001 16.2565 26.2656 16.1033C26.4311 15.9562 26.6885 15.9623 26.8355 16.1278L29.7895 19.2778C29.9427 19.4433 29.9366 19.6946 29.7711 19.8478C29.6914 19.9213 29.5872 19.9581 29.483 19.952Z" fill="#bbbbbb"/>
        </g>
      </g>
    </g>
  </g>
  <mask id="mask102_92_8325" style="mask-type:luminance" maskUnits="userSpaceOnUse" x="19" y="3" width="5" height="9">
    <path d="M19.2852 3.88281H23.9918V11.7273H19.2852V3.88281Z" fill="white"/>
  </mask>
  <g mask="url(#mask102_92_8325)">
    <mask id="mask103_92_8325" style="mask-type:luminance" maskUnits="userSpaceOnUse" x="7" y="1" width="66" height="48">
      <path d="M9.08943 1.4082L72.5867 3.73703L70.9504 48.4198L7.45312 46.091L9.08943 1.4082Z" fill="white"/>
    </mask>
    <g mask="url(#mask103_92_8325)">
      <mask id="mask104_92_8325" style="mask-type:luminance" maskUnits="userSpaceOnUse" x="6" y="1" width="68" height="49">
        <path d="M8.46827 1.38672L73.1422 3.75844L71.463 49.6179L6.78906 47.2462L8.46827 1.38672Z" fill="white"/>
      </mask>
      <g mask="url(#mask104_92_8325)">
        <mask id="mask105_92_8325" style="mask-type:luminance" maskUnits="userSpaceOnUse" x="-18" y="0" width="98" height="100">
          <path d="M-13.8036 0.572266L79.0858 3.9797L75.5987 99.2225L-17.2969 95.8212L-13.8036 0.572266Z" fill="white"/>
        </mask>
        <g mask="url(#mask105_92_8325)">
          <path d="M22.4215 10.2835C22.2622 10.2774 22.1212 10.1793 22.0599 10.0261L20.1479 5.13558C20.0682 4.92721 20.1724 4.69433 20.3807 4.61466C20.583 4.53499 20.822 4.63917 20.9017 4.84754L22.8138 9.73807C22.8934 9.94031 22.7892 10.1732 22.5809 10.2529C22.5318 10.2774 22.4767 10.2835 22.4215 10.2835Z" fill="#bbbbbb"/>
        </g>
      </g>
    </g>
  </g>
  <mask id="mask106_92_8325" style="mask-type:luminance" maskUnits="userSpaceOnUse" x="23" y="16" width="6" height="7">
    <path d="M23.9883 16.4336H28.695V22.7092H23.9883V16.4336Z" fill="white"/>
  </mask>
  <g mask="url(#mask106_92_8325)">
    <mask id="mask107_92_8325" style="mask-type:luminance" maskUnits="userSpaceOnUse" x="7" y="1" width="66" height="48">
      <path d="M9.08943 1.40625L72.5867 3.73507L70.9504 48.4179L7.45312 46.089L9.08943 1.40625Z" fill="white"/>
    </mask>
    <g mask="url(#mask107_92_8325)">
      <mask id="mask108_92_8325" style="mask-type:luminance" maskUnits="userSpaceOnUse" x="6" y="1" width="68" height="49">
        <path d="M8.47217 1.38477L73.1461 3.75649L71.4669 49.6159L6.79297 47.2442L8.47217 1.38477Z" fill="white"/>
      </mask>
      <g mask="url(#mask108_92_8325)">
        <mask id="mask109_92_8325" style="mask-type:luminance" maskUnits="userSpaceOnUse" x="-18" y="0" width="98" height="100">
          <path d="M-13.8075 0.570312L79.0819 3.97775L75.5948 99.2205L-17.3008 95.8192L-13.8075 0.570312Z" fill="white"/>
        </mask>
        <g mask="url(#mask109_92_8325)">
          <path d="M27.1832 22.4657C27.03 22.4596 26.883 22.3677 26.8217 22.2144L24.9096 17.3239C24.8299 17.1155 24.9341 16.8827 25.1425 16.803C25.3447 16.7233 25.5837 16.8214 25.6634 17.0297L27.5755 21.9203C27.6551 22.1286 27.551 22.3615 27.3426 22.4412C27.2936 22.4596 27.2384 22.4718 27.1832 22.4657Z" fill="#bbbbbb"/>
        </g>
      </g>
    </g>
  </g>
  <mask id="mask110_92_8325" style="mask-type:luminance" maskUnits="userSpaceOnUse" x="14" y="8" width="7" height="6">
    <path d="M14.5703 8.58984H20.8459V13.2965H14.5703V8.58984Z" fill="white"/>
  </mask>
  <g mask="url(#mask110_92_8325)">
    <mask id="mask111_92_8325" style="mask-type:luminance" maskUnits="userSpaceOnUse" x="7" y="1" width="66" height="48">
      <path d="M9.09334 1.41211L72.5906 3.74093L70.9543 48.4237L7.45703 46.0949L9.09334 1.41211Z" fill="white"/>
    </mask>
    <g mask="url(#mask111_92_8325)">
      <mask id="mask112_92_8325" style="mask-type:luminance" maskUnits="userSpaceOnUse" x="6" y="1" width="68" height="49">
        <path d="M8.4878 1.38086L73.1617 3.75258L71.4825 49.612L6.80859 47.2403L8.4878 1.38086Z" fill="white"/>
      </mask>
      <g mask="url(#mask112_92_8325)">
        <mask id="mask113_92_8325" style="mask-type:luminance" maskUnits="userSpaceOnUse" x="-18" y="0" width="98" height="100">
          <path d="M-13.7802 0.570312L79.1092 3.97775L75.6221 99.2205L-17.2734 95.8192L-13.7802 0.570312Z" fill="white"/>
        </mask>
        <g mask="url(#mask113_92_8325)">
          <path d="M20.2393 12.4029C20.1903 12.4029 20.1413 12.3906 20.0922 12.3723L16.3355 10.7911C16.1332 10.7053 16.0352 10.4663 16.121 10.2641C16.2129 10.0557 16.4458 9.96376 16.6541 10.0496L20.4109 11.6307C20.6131 11.7165 20.7112 11.9555 20.6254 12.1578C20.558 12.3171 20.3987 12.409 20.2393 12.4029Z" fill="#bbbbbb"/>
        </g>
      </g>
    </g>
  </g>
  <mask id="mask114_92_8325" style="mask-type:luminance" maskUnits="userSpaceOnUse" x="25" y="13" width="7" height="6">
    <path d="M25.5625 13.2949H31.8381V18.0016H25.5625V13.2949Z" fill="white"/>
  </mask>
  <g mask="url(#mask114_92_8325)">
    <mask id="mask115_92_8325" style="mask-type:luminance" maskUnits="userSpaceOnUse" x="7" y="1" width="66" height="48">
      <path d="M9.08943 1.41016L72.5867 3.73898L70.9504 48.4218L7.45312 46.0929L9.08943 1.41016Z" fill="white"/>
    </mask>
    <g mask="url(#mask115_92_8325)">
      <mask id="mask116_92_8325" style="mask-type:luminance" maskUnits="userSpaceOnUse" x="6" y="1" width="68" height="49">
        <path d="M8.46827 1.37891L73.1422 3.75063L71.463 49.6101L6.78906 47.2384L8.46827 1.37891Z" fill="white"/>
      </mask>
      <g mask="url(#mask116_92_8325)">
        <mask id="mask117_92_8325" style="mask-type:luminance" maskUnits="userSpaceOnUse" x="-18" y="0" width="98" height="100">
          <path d="M-13.8036 0.566406L79.0858 3.97384L75.5987 99.2166L-17.2969 95.8153L-13.8036 0.566406Z" fill="white"/>
        </mask>
        <g mask="url(#mask117_92_8325)">
          <path d="M31.2301 17.0329C31.1811 17.0329 31.1382 17.0268 31.0892 17.0023L27.3324 15.4211C27.1241 15.3353 27.0321 15.1024 27.1179 14.8941C27.2037 14.6918 27.4427 14.5938 27.6511 14.6796L31.4079 16.2607C31.6101 16.3526 31.7082 16.5855 31.6224 16.7939C31.5488 16.9471 31.3956 17.039 31.2301 17.0329Z" fill="#bbbbbb"/>
        </g>
      </g>
    </g>
  </g>
  <mask id="mask118_92_8325" style="mask-type:luminance" maskUnits="userSpaceOnUse" x="6" y="21" width="3" height="4">
    <path d="M6.72656 21.1387H8.29545V24.2765H6.72656V21.1387Z" fill="white"/>
  </mask>
  <g mask="url(#mask118_92_8325)">
    <mask id="mask119_92_8325" style="mask-type:luminance" maskUnits="userSpaceOnUse" x="7" y="1" width="66" height="48">
      <path d="M9.08162 1.40039L72.5788 3.72921L70.9425 48.412L7.44531 46.0832L9.08162 1.40039Z" fill="white"/>
    </mask>
    <g mask="url(#mask119_92_8325)">
      <mask id="mask120_92_8325" style="mask-type:luminance" maskUnits="userSpaceOnUse" x="6" y="1" width="68" height="49">
        <path d="M8.46827 1.375L73.1422 3.74672L71.463 49.6062L6.78906 47.2345L8.46827 1.375Z" fill="white"/>
      </mask>
      <g mask="url(#mask120_92_8325)">
        <mask id="mask121_92_8325" style="mask-type:luminance" maskUnits="userSpaceOnUse" x="-18" y="0" width="98" height="100">
          <path d="M-13.8075 0.560547L79.0819 3.96798L75.5948 99.2108L-17.3008 95.8094L-13.8075 0.560547Z" fill="white"/>
        </mask>
        <g mask="url(#mask121_92_8325)">
          <path d="M7.38017 22.8252C7.17793 22.819 6.99408 22.6842 6.93279 22.4758C6.85925 22.2368 6.96956 21.9794 7.19631 21.8875C7.4292 21.7895 7.68659 21.8875 7.80916 22.1143C7.93173 22.3349 7.87045 22.6045 7.66821 22.7455C7.63757 22.7639 7.60692 22.7761 7.57628 22.7884C7.55177 22.8007 7.52112 22.8129 7.49048 22.819C7.45371 22.8252 7.41694 22.8252 7.38017 22.8252Z" fill="#bbbbbb"/>
        </g>
      </g>
    </g>
  </g>
  <mask id="mask122_92_8325" style="mask-type:luminance" maskUnits="userSpaceOnUse" x="14" y="25" width="4" height="3">
    <path d="M14.5703 25.8496H17.7081V27.4185H14.5703V25.8496Z" fill="white"/>
  </mask>
  <g mask="url(#mask122_92_8325)">
    <mask id="mask123_92_8325" style="mask-type:luminance" maskUnits="userSpaceOnUse" x="7" y="1" width="66" height="48">
      <path d="M9.09334 1.4082L72.5906 3.73703L70.9543 48.4198L7.45703 46.091L9.09334 1.4082Z" fill="white"/>
    </mask>
    <g mask="url(#mask123_92_8325)">
      <mask id="mask124_92_8325" style="mask-type:luminance" maskUnits="userSpaceOnUse" x="6" y="1" width="68" height="49">
        <path d="M8.4878 1.38281L73.1617 3.75454L71.4825 49.614L6.80859 47.2423L8.4878 1.38281Z" fill="white"/>
      </mask>
      <g mask="url(#mask124_92_8325)">
        <mask id="mask125_92_8325" style="mask-type:luminance" maskUnits="userSpaceOnUse" x="-18" y="0" width="98" height="100">
          <path d="M-13.7802 0.570312L79.1092 3.97775L75.6221 99.2205L-17.2734 95.8192L-13.7802 0.570312Z" fill="white"/>
        </mask>
        <g mask="url(#mask125_92_8325)">
          <path d="M16.2233 27.0383C16.021 27.0261 15.8433 26.8912 15.7759 26.6829C15.7023 26.4439 15.8188 26.1865 16.0455 26.0945C16.2723 25.9965 16.5358 26.0945 16.6584 26.3213C16.7809 26.5419 16.7135 26.8177 16.5113 26.9525C16.4868 26.9709 16.4561 26.9832 16.4255 26.9954C16.3949 27.0077 16.3642 27.0199 16.3336 27.0261C16.2968 27.0322 16.26 27.0383 16.2233 27.0383Z" fill="#bbbbbb"/>
        </g>
      </g>
    </g>
  </g>
  <mask id="mask126_92_8325" style="mask-type:luminance" maskUnits="userSpaceOnUse" x="39" y="7" width="4" height="4">
    <path d="M39.6758 7.01953H42.8136V10.1573H39.6758V7.01953Z" fill="white"/>
  </mask>
  <g mask="url(#mask126_92_8325)">
    <mask id="mask127_92_8325" style="mask-type:luminance" maskUnits="userSpaceOnUse" x="7" y="1" width="66" height="48">
      <path d="M9.08552 1.4043L72.5828 3.73312L70.9464 48.4159L7.44922 46.0871L9.08552 1.4043Z" fill="white"/>
    </mask>
    <g mask="url(#mask127_92_8325)">
      <mask id="mask128_92_8325" style="mask-type:luminance" maskUnits="userSpaceOnUse" x="6" y="1" width="68" height="49">
        <path d="M8.46045 1.38086L73.1344 3.75258L71.4552 49.612L6.78125 47.2403L8.46045 1.38086Z" fill="white"/>
      </mask>
      <g mask="url(#mask128_92_8325)">
        <mask id="mask129_92_8325" style="mask-type:luminance" maskUnits="userSpaceOnUse" x="-18" y="0" width="98" height="100">
          <path d="M-13.8115 0.568359L79.078 3.9758L75.5909 99.2186L-17.3047 95.8173L-13.8115 0.568359Z" fill="white"/>
        </mask>
        <g mask="url(#mask129_92_8325)">
          <path d="M41.1262 8.9645C40.924 8.95837 40.7401 8.81741 40.6788 8.61517C40.6053 8.37003 40.7156 8.11264 40.9485 8.02071C41.1752 7.92878 41.4388 8.02684 41.5552 8.24746C41.6778 8.47422 41.6165 8.74387 41.4142 8.8787C41.3836 8.89708 41.3591 8.91547 41.3284 8.9216C41.2978 8.93998 41.2672 8.94611 41.2365 8.95224C41.1997 8.9645 41.163 8.9645 41.1262 8.9645Z" fill="#bbbbbb"/>
        </g>
      </g>
    </g>
  </g>
  <mask id="mask130_92_8325" style="mask-type:luminance" maskUnits="userSpaceOnUse" x="53" y="10" width="3" height="4">
    <path d="M53.8047 10.1562H55.3736V13.294H53.8047V10.1562Z" fill="white"/>
  </mask>
  <g mask="url(#mask130_92_8325)">
    <mask id="mask131_92_8325" style="mask-type:luminance" maskUnits="userSpaceOnUse" x="7" y="1" width="66" height="48">
      <path d="M9.08552 1.4082L72.5828 3.73703L70.9464 48.4198L7.44922 46.091L9.08552 1.4082Z" fill="white"/>
    </mask>
    <g mask="url(#mask131_92_8325)">
      <mask id="mask132_92_8325" style="mask-type:luminance" maskUnits="userSpaceOnUse" x="6" y="1" width="68" height="49">
        <path d="M8.46827 1.38672L73.1422 3.75844L71.463 49.6179L6.78906 47.2462L8.46827 1.38672Z" fill="white"/>
      </mask>
      <g mask="url(#mask132_92_8325)">
        <mask id="mask133_92_8325" style="mask-type:luminance" maskUnits="userSpaceOnUse" x="-18" y="0" width="98" height="100">
          <path d="M-13.8036 0.574219L79.0858 3.98166L75.5987 99.2244L-17.2969 95.8231L-13.8036 0.574219Z" fill="white"/>
        </mask>
        <g mask="url(#mask133_92_8325)">
          <path d="M54.6959 12.0748C54.4937 12.0686 54.3159 11.9277 54.2485 11.7254C54.175 11.4803 54.2914 11.229 54.5182 11.131C54.7449 11.0391 55.0085 11.131 55.131 11.3577C55.2536 11.5784 55.1923 11.8541 54.9839 11.989C54.9594 12.0074 54.9288 12.0257 54.8981 12.0319C54.8736 12.0503 54.8369 12.0564 54.8062 12.0625C54.7695 12.0748 54.7327 12.0748 54.6959 12.0748Z" fill="#bbbbbb"/>
        </g>
      </g>
    </g>
  </g>
  <mask id="mask134_92_8325" style="mask-type:luminance" maskUnits="userSpaceOnUse" x="31" y="47" width="3" height="3">
    <path d="M31.832 47.8125H33.4009V49.3814H31.832V47.8125Z" fill="white"/>
  </mask>
  <g mask="url(#mask134_92_8325)">
    <mask id="mask135_92_8325" style="mask-type:luminance" maskUnits="userSpaceOnUse" x="7" y="1" width="66" height="48">
      <path d="M9.09334 1.4082L72.5906 3.73703L70.9543 48.4198L7.45703 46.091L9.09334 1.4082Z" fill="white"/>
    </mask>
    <g mask="url(#mask135_92_8325)">
      <mask id="mask136_92_8325" style="mask-type:luminance" maskUnits="userSpaceOnUse" x="6" y="1" width="68" height="49">
        <path d="M8.47217 1.38086L73.1461 3.75258L71.4669 49.612L6.79297 47.2403L8.47217 1.38086Z" fill="white"/>
      </mask>
      <g mask="url(#mask136_92_8325)">
        <mask id="mask137_92_8325" style="mask-type:luminance" maskUnits="userSpaceOnUse" x="-18" y="0" width="98" height="100">
          <path d="M-13.7997 0.568359L79.0897 3.9758L75.6026 99.2186L-17.293 95.8173L-13.7997 0.568359Z" fill="white"/>
        </mask>
        <g mask="url(#mask137_92_8325)">
          <path d="M32.824 48.9254C32.6217 48.9193 32.4379 48.7784 32.3766 48.5761C32.2969 48.331 32.4134 48.0797 32.6401 47.9816C32.873 47.8897 33.1304 47.9878 33.253 48.2084C33.3756 48.4352 33.3143 48.7048 33.112 48.8396C33.0814 48.858 33.0507 48.8764 33.0201 48.8887C32.9956 48.9009 32.9649 48.9071 32.9343 48.9132C32.8914 48.9254 32.8546 48.9254 32.824 48.9254Z" fill="#bbbbbb"/>
        </g>
      </g>
    </g>
  </g>
  <mask id="mask138_92_8325" style="mask-type:luminance" maskUnits="userSpaceOnUse" x="55" y="21" width="2" height="4">
    <path d="M55.3711 21.1387H56.94V24.2765H55.3711V21.1387Z" fill="white"/>
  </mask>
  <g mask="url(#mask138_92_8325)">
    <mask id="mask139_92_8325" style="mask-type:luminance" maskUnits="userSpaceOnUse" x="7" y="1" width="66" height="48">
      <path d="M9.08943 1.40234L72.5867 3.73117L70.9504 48.4139L7.45312 46.0851L9.08943 1.40234Z" fill="white"/>
    </mask>
    <g mask="url(#mask139_92_8325)">
      <mask id="mask140_92_8325" style="mask-type:luminance" maskUnits="userSpaceOnUse" x="6" y="1" width="68" height="49">
        <path d="M8.47217 1.37695L73.1461 3.74868L71.4669 49.6081L6.79297 47.2364L8.47217 1.37695Z" fill="white"/>
      </mask>
      <g mask="url(#mask140_92_8325)">
        <mask id="mask141_92_8325" style="mask-type:luminance" maskUnits="userSpaceOnUse" x="-18" y="0" width="98" height="100">
          <path d="M-13.8036 0.564453L79.0858 3.97189L75.5987 99.2147L-17.2969 95.8134L-13.8036 0.564453Z" fill="white"/>
        </mask>
        <g mask="url(#mask141_92_8325)">
          <path d="M56.3357 22.9561C56.1335 22.95 55.9496 22.8152 55.8883 22.6068C55.8087 22.3617 55.9251 22.1104 56.1519 22.0185C56.3786 21.9204 56.6421 22.0185 56.7647 22.2391C56.8873 22.4659 56.826 22.7355 56.6176 22.8765C56.5931 22.8949 56.5625 22.9071 56.5379 22.9194C56.5073 22.9316 56.4767 22.9439 56.446 22.95C56.4092 22.9561 56.3663 22.9561 56.3357 22.9561Z" fill="#bbbbbb"/>
        </g>
      </g>
    </g>
  </g>
  <mask id="mask142_92_8325" style="mask-type:luminance" maskUnits="userSpaceOnUse" x="25" y="44" width="4" height="4">
    <path d="M25.5625 44.6738H28.7003V47.8116H25.5625V44.6738Z" fill="white"/>
  </mask>
  <g mask="url(#mask142_92_8325)">
    <mask id="mask143_92_8325" style="mask-type:luminance" maskUnits="userSpaceOnUse" x="7" y="1" width="66" height="48">
      <path d="M9.08943 1.41016L72.5867 3.73898L70.9504 48.4218L7.45312 46.0929L9.08943 1.41016Z" fill="white"/>
    </mask>
    <g mask="url(#mask143_92_8325)">
      <mask id="mask144_92_8325" style="mask-type:luminance" maskUnits="userSpaceOnUse" x="6" y="1" width="68" height="49">
        <path d="M8.46827 1.37891L73.1422 3.75063L71.463 49.6101L6.78906 47.2384L8.46827 1.37891Z" fill="white"/>
      </mask>
      <g mask="url(#mask144_92_8325)">
        <mask id="mask145_92_8325" style="mask-type:luminance" maskUnits="userSpaceOnUse" x="-18" y="0" width="98" height="100">
          <path d="M-13.8036 0.566406L79.0858 3.97384L75.5987 99.2166L-17.2969 95.8153L-13.8036 0.566406Z" fill="white"/>
        </mask>
        <g mask="url(#mask145_92_8325)">
          <path d="M27.5857 46.5993C27.3835 46.5931 27.1996 46.4583 27.1383 46.2499C27.0587 46.0048 27.1751 45.7535 27.4019 45.6555C27.6286 45.5635 27.8921 45.6616 28.0147 45.8822C28.1373 46.109 28.076 46.3786 27.8737 46.5196C27.8431 46.538 27.8125 46.5502 27.7879 46.5625C27.7573 46.5748 27.7267 46.587 27.6899 46.5931C27.6531 46.5993 27.6163 46.5993 27.5857 46.5993Z" fill="#bbbbbb"/>
        </g>
      </g>
    </g>
  </g>
  <mask id="mask146_92_8325" style="mask-type:luminance" maskUnits="userSpaceOnUse" x="38" y="28" width="2" height="3">
    <path d="M38.0977 28.9824H39.6665V30.5513H38.0977V28.9824Z" fill="white"/>
  </mask>
  <g mask="url(#mask146_92_8325)">
    <mask id="mask147_92_8325" style="mask-type:luminance" maskUnits="userSpaceOnUse" x="7" y="1" width="66" height="48">
      <path d="M9.07771 1.41016L72.5749 3.73898L70.9386 48.4218L7.44141 46.0929L9.07771 1.41016Z" fill="white"/>
    </mask>
    <g mask="url(#mask147_92_8325)">
      <mask id="mask148_92_8325" style="mask-type:luminance" maskUnits="userSpaceOnUse" x="6" y="1" width="68" height="49">
        <path d="M8.46045 1.37891L73.1344 3.75063L71.4552 49.6101L6.78125 47.2384L8.46045 1.37891Z" fill="white"/>
      </mask>
      <g mask="url(#mask148_92_8325)">
        <mask id="mask149_92_8325" style="mask-type:luminance" maskUnits="userSpaceOnUse" x="-18" y="0" width="98" height="100">
          <path d="M-13.8115 0.568359L79.078 3.9758L75.5909 99.2186L-17.3047 95.8173L-13.8115 0.568359Z" fill="white"/>
        </mask>
        <g mask="url(#mask149_92_8325)">
          <path d="M38.699 30.1435C38.4967 30.1374 38.3129 30.0026 38.2516 29.7942C38.1719 29.5552 38.2884 29.2978 38.5151 29.2059C38.7419 29.1078 39.0054 29.2059 39.128 29.4326C39.2506 29.6532 39.1893 29.9229 38.987 30.0639C38.9564 30.0822 38.9257 30.0945 38.9012 30.1068C38.8706 30.119 38.8399 30.1313 38.8093 30.1374C38.7725 30.1435 38.7358 30.1435 38.699 30.1435Z" fill="#bbbbbb"/>
        </g>
      </g>
    </g>
  </g>
  <mask id="mask150_92_8325" style="mask-type:luminance" maskUnits="userSpaceOnUse" x="36" y="11" width="4" height="3">
    <path d="M36.5312 11.7227H39.669V13.2915H36.5312V11.7227Z" fill="white"/>
  </mask>
  <g mask="url(#mask150_92_8325)">
    <mask id="mask151_92_8325" style="mask-type:luminance" maskUnits="userSpaceOnUse" x="7" y="1" width="66" height="48">
      <path d="M9.07771 1.4043L72.5749 3.73312L70.9386 48.4159L7.44141 46.0871L9.07771 1.4043Z" fill="white"/>
    </mask>
    <g mask="url(#mask151_92_8325)">
      <mask id="mask152_92_8325" style="mask-type:luminance" maskUnits="userSpaceOnUse" x="6" y="1" width="68" height="49">
        <path d="M8.46827 1.38086L73.1422 3.75258L71.463 49.612L6.78906 47.2403L8.46827 1.38086Z" fill="white"/>
      </mask>
      <g mask="url(#mask152_92_8325)">
        <mask id="mask153_92_8325" style="mask-type:luminance" maskUnits="userSpaceOnUse" x="-18" y="0" width="98" height="100">
          <path d="M-13.8075 0.568359L79.0819 3.9758L75.5948 99.2186L-17.3008 95.8173L-13.8075 0.568359Z" fill="white"/>
        </mask>
        <g mask="url(#mask153_92_8325)">
          <path d="M37.9936 12.8252C37.7975 12.819 37.6137 12.6842 37.5524 12.4758C37.4727 12.2368 37.5892 11.9794 37.8159 11.8875C38.0427 11.7895 38.3062 11.8875 38.4288 12.1143C38.5513 12.3349 38.49 12.6107 38.2817 12.7455C38.2572 12.7639 38.2265 12.7761 38.1959 12.7884C38.1714 12.8007 38.1407 12.8129 38.1101 12.819C38.0672 12.8252 38.0304 12.8313 37.9936 12.8252Z" fill="#bbbbbb"/>
        </g>
      </g>
    </g>
  </g>
  <mask id="mask154_92_8325" style="mask-type:luminance" maskUnits="userSpaceOnUse" x="47" y="30" width="4" height="3">
    <path d="M47.5195 30.5527H50.6573V32.1216H47.5195V30.5527Z" fill="white"/>
  </mask>
  <g mask="url(#mask154_92_8325)">
    <mask id="mask155_92_8325" style="mask-type:luminance" maskUnits="userSpaceOnUse" x="7" y="1" width="66" height="48">
      <path d="M9.08162 1.4082L72.5788 3.73703L70.9425 48.4198L7.44531 46.091L9.08162 1.4082Z" fill="white"/>
    </mask>
    <g mask="url(#mask155_92_8325)">
      <mask id="mask156_92_8325" style="mask-type:luminance" maskUnits="userSpaceOnUse" x="6" y="1" width="68" height="49">
        <path d="M8.47608 1.38672L73.15 3.75844L71.4708 49.6179L6.79688 47.2462L8.47608 1.38672Z" fill="white"/>
      </mask>
      <g mask="url(#mask156_92_8325)">
        <mask id="mask157_92_8325" style="mask-type:luminance" maskUnits="userSpaceOnUse" x="-18" y="0" width="98" height="100">
          <path d="M-13.8036 0.572266L79.0858 3.9797L75.5987 99.2225L-17.2969 95.8212L-13.8036 0.572266Z" fill="white"/>
        </mask>
        <g mask="url(#mask157_92_8325)">
          <path d="M48.6529 31.6188C48.4507 31.6127 48.273 31.4778 48.2056 31.2695C48.132 31.0243 48.2485 30.7731 48.4752 30.675C48.702 30.5831 48.9655 30.6811 49.0881 30.9018C49.2106 31.1285 49.1493 31.3982 48.941 31.5391C48.9165 31.5575 48.8858 31.5698 48.8552 31.582C48.8245 31.5943 48.7939 31.6065 48.7633 31.6127C48.7265 31.6188 48.6897 31.6188 48.6529 31.6188Z" fill="#bbbbbb"/>
        </g>
      </g>
    </g>
  </g>
  <mask id="mask158_92_8325" style="mask-type:luminance" maskUnits="userSpaceOnUse" x="44" y="39" width="2" height="3">
    <path d="M44.3867 39.9648H45.9556V41.5337H44.3867V39.9648Z" fill="white"/>
  </mask>
  <g mask="url(#mask158_92_8325)">
    <mask id="mask159_92_8325" style="mask-type:luminance" maskUnits="userSpaceOnUse" x="7" y="1" width="66" height="48">
      <path d="M9.08943 1.4082L72.5867 3.73703L70.9504 48.4198L7.45312 46.091L9.08943 1.4082Z" fill="white"/>
    </mask>
    <g mask="url(#mask159_92_8325)">
      <mask id="mask160_92_8325" style="mask-type:luminance" maskUnits="userSpaceOnUse" x="6" y="1" width="68" height="49">
        <path d="M8.47217 1.38281L73.1461 3.75454L71.4669 49.614L6.79297 47.2423L8.47217 1.38281Z" fill="white"/>
      </mask>
      <g mask="url(#mask160_92_8325)">
        <mask id="mask161_92_8325" style="mask-type:luminance" maskUnits="userSpaceOnUse" x="-18" y="0" width="98" height="100">
          <path d="M-13.8075 0.572266L79.0819 3.9797L75.5948 99.2225L-17.3008 95.8212L-13.8075 0.572266Z" fill="white"/>
        </mask>
        <g mask="url(#mask161_92_8325)">
          <path d="M45.0481 41.1709C44.8459 41.1647 44.662 41.0299 44.6008 40.8277C44.5272 40.5825 44.6375 40.3251 44.8643 40.2332C45.0972 40.1352 45.3607 40.2332 45.4771 40.46C45.5997 40.6806 45.5384 40.9564 45.3362 41.0912C45.3055 41.1096 45.2749 41.1218 45.2442 41.1341C45.2197 41.1464 45.1891 41.1586 45.1585 41.1647C45.1217 41.1709 45.0849 41.177 45.0481 41.1709Z" fill="#bbbbbb"/>
        </g>
      </g>
    </g>
  </g>
  <mask id="mask162_92_8325" style="mask-type:luminance" maskUnits="userSpaceOnUse" x="38" y="43" width="10" height="7">
    <path d="M38.0977 43.1074H47.511V49.383H38.0977V43.1074Z" fill="white"/>
  </mask>
  <g mask="url(#mask162_92_8325)">
    <mask id="mask163_92_8325" style="mask-type:luminance" maskUnits="userSpaceOnUse" x="7" y="1" width="66" height="48">
      <path d="M9.07771 1.4082L72.5749 3.73703L70.9386 48.4198L7.44141 46.091L9.07771 1.4082Z" fill="white"/>
    </mask>
    <g mask="url(#mask163_92_8325)">
      <mask id="mask164_92_8325" style="mask-type:luminance" maskUnits="userSpaceOnUse" x="6" y="1" width="68" height="49">
        <path d="M8.46045 1.38672L73.1344 3.75844L71.4552 49.6179L6.78125 47.2462L8.46045 1.38672Z" fill="white"/>
      </mask>
      <g mask="url(#mask164_92_8325)">
        <mask id="mask165_92_8325" style="mask-type:luminance" maskUnits="userSpaceOnUse" x="-18" y="0" width="98" height="100">
          <path d="M-13.8115 0.572266L79.078 3.9797L75.5909 99.2225L-17.3047 95.8212L-13.8115 0.572266Z" fill="white"/>
        </mask>
        <g mask="url(#mask165_92_8325)">
          <path d="M42.4306 45.2254C40.9107 45.1703 39.5808 46.2795 39.5257 47.6523C39.4766 49.1047 40.923 50.692 42.3509 50.7472C43.8095 50.7962 45.0903 49.6563 45.1393 48.2467C45.1945 46.7759 43.8524 45.2744 42.4306 45.2254ZM42.3202 51.55C40.4327 51.4765 38.6493 49.5337 38.7167 47.6216C38.7841 45.8137 40.5001 44.349 42.4612 44.4226C44.3243 44.49 46.0219 46.3653 45.9483 48.2774C45.8809 50.1221 44.2201 51.6174 42.3202 51.55Z" fill="#bbbbbb"/>
        </g>
      </g>
    </g>
  </g>
  <mask id="mask166_92_8325" style="mask-type:luminance" maskUnits="userSpaceOnUse" x="38" y="44" width="8" height="6">
    <path d="M38.0977 44.6738H45.9421V49.3805H38.0977V44.6738Z" fill="white"/>
  </mask>
  <g mask="url(#mask166_92_8325)">
    <mask id="mask167_92_8325" style="mask-type:luminance" maskUnits="userSpaceOnUse" x="7" y="1" width="66" height="48">
      <path d="M9.07771 1.41016L72.5749 3.73898L70.9386 48.4218L7.44141 46.0929L9.07771 1.41016Z" fill="white"/>
    </mask>
    <g mask="url(#mask167_92_8325)">
      <mask id="mask168_92_8325" style="mask-type:luminance" maskUnits="userSpaceOnUse" x="6" y="1" width="68" height="49">
        <path d="M8.46045 1.37891L73.1344 3.75063L71.4552 49.6101L6.78125 47.2384L8.46045 1.37891Z" fill="white"/>
      </mask>
      <g mask="url(#mask168_92_8325)">
        <mask id="mask169_92_8325" style="mask-type:luminance" maskUnits="userSpaceOnUse" x="-18" y="0" width="98" height="100">
          <path d="M-13.8115 0.568359L79.078 3.9758L75.5909 99.2186L-17.3047 95.8173L-13.8115 0.568359Z" fill="white"/>
        </mask>
        <g mask="url(#mask169_92_8325)">
          <path d="M41.7498 48.0999C41.2717 48.0815 40.7692 48.0079 40.2483 47.8854C39.5374 47.7199 39.1145 47.3951 38.9858 46.9293C38.9307 46.7148 39.0532 46.4942 39.2738 46.439C39.4883 46.3778 39.709 46.5065 39.7703 46.721C39.8132 46.8742 40.046 47.009 40.4321 47.1009C41.2656 47.297 42.0255 47.3461 42.7058 47.248C43.478 47.1316 44.1705 46.8067 44.6547 46.3349C44.814 46.1816 45.0714 46.1816 45.2246 46.341C45.3839 46.5003 45.3839 46.7516 45.2185 46.9109C44.6118 47.4993 43.766 47.8976 42.8284 48.0386C42.4852 48.0937 42.1236 48.1121 41.7498 48.0999Z" fill="#bbbbbb"/>
        </g>
      </g>
    </g>
  </g>
  <mask id="mask170_92_8325" style="mask-type:luminance" maskUnits="userSpaceOnUse" x="38" y="46" width="8" height="4">
    <path d="M38.0977 46.2402H45.9421V49.378H38.0977V46.2402Z" fill="white"/>
  </mask>
  <g mask="url(#mask170_92_8325)">
    <mask id="mask171_92_8325" style="mask-type:luminance" maskUnits="userSpaceOnUse" x="7" y="1" width="66" height="48">
      <path d="M9.07771 1.40625L72.5749 3.73507L70.9386 48.4179L7.44141 46.089L9.07771 1.40625Z" fill="white"/>
    </mask>
    <g mask="url(#mask171_92_8325)">
      <mask id="mask172_92_8325" style="mask-type:luminance" maskUnits="userSpaceOnUse" x="6" y="1" width="68" height="49">
        <path d="M8.46045 1.38086L73.1344 3.75258L71.4552 49.612L6.78125 47.2403L8.46045 1.38086Z" fill="white"/>
      </mask>
      <g mask="url(#mask172_92_8325)">
        <mask id="mask173_92_8325" style="mask-type:luminance" maskUnits="userSpaceOnUse" x="-18" y="0" width="98" height="100">
          <path d="M-13.8115 0.566406L79.078 3.97384L75.5909 99.2166L-17.3047 95.8153L-13.8115 0.566406Z" fill="white"/>
        </mask>
        <g mask="url(#mask173_92_8325)">
          <path d="M41.2868 49.831C40.6556 49.8065 40.0305 49.69 39.4483 49.4755C39.2338 49.402 39.1296 49.1691 39.2031 48.9607C39.2828 48.7524 39.5096 48.6482 39.7241 48.7217C41.0478 49.2059 42.5922 49.1201 43.8547 48.5011C44.3511 48.256 44.7923 47.8944 45.0558 47.5083C45.1845 47.3244 45.4358 47.2754 45.6197 47.4041C45.8035 47.5267 45.8526 47.7779 45.7239 47.9618C45.3807 48.4582 44.8291 48.9178 44.2101 49.2181C43.3154 49.6594 42.2919 49.8678 41.2868 49.831Z" fill="#bbbbbb"/>
        </g>
      </g>
    </g>
  </g>
  <mask id="mask174_92_8325" style="mask-type:luminance" maskUnits="userSpaceOnUse" x="39" y="44" width="6" height="4">
    <path d="M39.6758 44.6738H44.3825V47.8116H39.6758V44.6738Z" fill="white"/>
  </mask>
  <g mask="url(#mask174_92_8325)">
    <mask id="mask175_92_8325" style="mask-type:luminance" maskUnits="userSpaceOnUse" x="7" y="1" width="66" height="48">
      <path d="M9.08552 1.41016L72.5828 3.73898L70.9464 48.4218L7.44922 46.0929L9.08552 1.41016Z" fill="white"/>
    </mask>
    <g mask="url(#mask175_92_8325)">
      <mask id="mask176_92_8325" style="mask-type:luminance" maskUnits="userSpaceOnUse" x="6" y="1" width="68" height="49">
        <path d="M8.46045 1.37891L73.1344 3.75063L71.4552 49.6101L6.78125 47.2384L8.46045 1.37891Z" fill="white"/>
      </mask>
      <g mask="url(#mask176_92_8325)">
        <mask id="mask177_92_8325" style="mask-type:luminance" maskUnits="userSpaceOnUse" x="-18" y="0" width="98" height="100">
          <path d="M-13.8115 0.568359L79.078 3.9758L75.5909 99.2186L-17.3047 95.8173L-13.8115 0.568359Z" fill="white"/>
        </mask>
        <g mask="url(#mask177_92_8325)">
          <path d="M41.1881 46.4296C40.9859 46.4235 40.7898 46.4051 40.612 46.3867C40.4343 46.3622 40.1095 46.3254 39.8582 46.1171C39.6805 45.9761 39.656 45.7248 39.8031 45.5532C39.944 45.3817 40.2014 45.3571 40.373 45.4981C40.4404 45.5532 40.612 45.5778 40.704 45.59C41.5558 45.6881 42.7325 45.6636 43.5537 45.0017C43.7253 44.8607 43.9827 44.8852 44.1237 45.0568C44.2646 45.2284 44.2401 45.4797 44.0685 45.6207C43.2167 46.3132 42.1135 46.4664 41.1881 46.4296Z" fill="#bbbbbb"/>
        </g>
      </g>
    </g>
  </g>
  <mask id="mask178_92_8325" style="mask-type:luminance" maskUnits="userSpaceOnUse" x="14" y="46" width="6" height="4">
    <path d="M14.5703 46.2402H19.277V49.378H14.5703V46.2402Z" fill="white"/>
  </mask>
  <g mask="url(#mask178_92_8325)">
    <mask id="mask179_92_8325" style="mask-type:luminance" maskUnits="userSpaceOnUse" x="7" y="1" width="66" height="48">
      <path d="M9.09334 1.40625L72.5906 3.73507L70.9543 48.4179L7.45703 46.089L9.09334 1.40625Z" fill="white"/>
    </mask>
    <g mask="url(#mask179_92_8325)">
      <mask id="mask180_92_8325" style="mask-type:luminance" maskUnits="userSpaceOnUse" x="6" y="1" width="68" height="49">
        <path d="M8.4878 1.38477L73.1617 3.75649L71.4825 49.6159L6.80859 47.2442L8.4878 1.38477Z" fill="white"/>
      </mask>
      <g mask="url(#mask180_92_8325)">
        <mask id="mask181_92_8325" style="mask-type:luminance" maskUnits="userSpaceOnUse" x="-18" y="0" width="98" height="100">
          <path d="M-13.7802 0.572266L79.1092 3.9797L75.6221 99.2225L-17.2734 95.8212L-13.7802 0.572266Z" fill="white"/>
        </mask>
        <g mask="url(#mask181_92_8325)">
          <path d="M18.0488 49.349C17.9446 49.3429 17.8404 49.3 17.7669 49.2142C17.5095 49.0548 16.1122 48.6197 15.2603 48.4542C15.0397 48.4175 14.8987 48.203 14.9355 47.9885C14.9784 47.7678 15.1929 47.6269 15.4135 47.6698C15.438 47.6759 18.1039 48.2397 18.4104 48.7361C18.5268 48.9261 18.4655 49.1713 18.2755 49.2877C18.2081 49.3306 18.1284 49.349 18.0488 49.349Z" fill="#bbbbbb"/>
        </g>
      </g>
    </g>
  </g>
  <mask id="mask182_92_8325" style="mask-type:luminance" maskUnits="userSpaceOnUse" x="11" y="46" width="4" height="4">
    <path d="M11.4375 46.2402H14.5753V49.378H11.4375V46.2402Z" fill="white"/>
  </mask>
  <g mask="url(#mask182_92_8325)">
    <mask id="mask183_92_8325" style="mask-type:luminance" maskUnits="userSpaceOnUse" x="7" y="1" width="66" height="48">
      <path d="M9.08162 1.40625L72.5788 3.73507L70.9425 48.4179L7.44531 46.089L9.08162 1.40625Z" fill="white"/>
    </mask>
    <g mask="url(#mask183_92_8325)">
      <mask id="mask184_92_8325" style="mask-type:luminance" maskUnits="userSpaceOnUse" x="6" y="1" width="68" height="49">
        <path d="M8.46827 1.38086L73.1422 3.75258L71.463 49.612L6.78906 47.2403L8.46827 1.38086Z" fill="white"/>
      </mask>
      <g mask="url(#mask184_92_8325)">
        <mask id="mask185_92_8325" style="mask-type:luminance" maskUnits="userSpaceOnUse" x="-18" y="0" width="98" height="100">
          <path d="M-13.8075 0.570312L79.0819 3.97775L75.5948 99.2205L-17.3008 95.8192L-13.8075 0.570312Z" fill="white"/>
        </mask>
        <g mask="url(#mask185_92_8325)">
          <path d="M13.795 48.0149C13.7766 48.0149 13.7582 48.0087 13.7337 48.0087L12.8205 47.8433C12.5999 47.8065 12.4528 47.592 12.4957 47.3775C12.5325 47.1569 12.747 47.0159 12.9676 47.0527L13.8808 47.2182C14.1014 47.2549 14.2485 47.4633 14.2056 47.6839C14.1688 47.88 13.9911 48.021 13.795 48.0149Z" fill="#bbbbbb"/>
        </g>
      </g>
    </g>
  </g>
  <mask id="mask186_92_8325" style="mask-type:luminance" maskUnits="userSpaceOnUse" x="8" y="46" width="4" height="2">
    <path d="M8.29688 46.2402H11.4347V47.8091H8.29688V46.2402Z" fill="white"/>
  </mask>
  <g mask="url(#mask186_92_8325)">
    <mask id="mask187_92_8325" style="mask-type:luminance" maskUnits="userSpaceOnUse" x="7" y="1" width="66" height="48">
      <path d="M9.08162 1.40625L72.5788 3.73507L70.9425 48.4179L7.44531 46.089L9.08162 1.40625Z" fill="white"/>
    </mask>
    <g mask="url(#mask187_92_8325)">
      <mask id="mask188_92_8325" style="mask-type:luminance" maskUnits="userSpaceOnUse" x="6" y="1" width="68" height="49">
        <path d="M8.46436 1.38086L73.1383 3.75258L71.4591 49.612L6.78516 47.2403L8.46436 1.38086Z" fill="white"/>
      </mask>
      <g mask="url(#mask188_92_8325)">
        <mask id="mask189_92_8325" style="mask-type:luminance" maskUnits="userSpaceOnUse" x="-18" y="0" width="98" height="100">
          <path d="M-13.8075 0.566406L79.0819 3.97384L75.5948 99.2166L-17.3008 95.8153L-13.8075 0.566406Z" fill="white"/>
        </mask>
        <g mask="url(#mask189_92_8325)">
          <path d="M10.7293 47.4414C10.7171 47.4414 10.7048 47.4414 10.6864 47.4352L10.0307 47.3494C9.81006 47.3188 9.65685 47.1165 9.68749 46.8959C9.71814 46.6753 9.9265 46.5221 10.141 46.5527L10.7967 46.6385C11.0174 46.6692 11.1767 46.8714 11.1461 47.092C11.1154 47.3004 10.9316 47.4475 10.7293 47.4414Z" fill="#bbbbbb"/>
        </g>
      </g>
    </g>
  </g>
  <mask id="mask190_92_8325" style="mask-type:luminance" maskUnits="userSpaceOnUse" x="6" y="44" width="3" height="4">
    <path d="M6.72656 44.6738H8.29545V47.8116H6.72656V44.6738Z" fill="white"/>
  </mask>
  <g mask="url(#mask190_92_8325)">
    <mask id="mask191_92_8325" style="mask-type:luminance" maskUnits="userSpaceOnUse" x="7" y="1" width="66" height="48">
      <path d="M9.08162 1.41016L72.5788 3.73898L70.9425 48.4218L7.44531 46.0929L9.08162 1.41016Z" fill="white"/>
    </mask>
    <g mask="url(#mask191_92_8325)">
      <mask id="mask192_92_8325" style="mask-type:luminance" maskUnits="userSpaceOnUse" x="6" y="1" width="68" height="49">
        <path d="M8.46827 1.37891L73.1422 3.75063L71.463 49.6101L6.78906 47.2384L8.46827 1.37891Z" fill="white"/>
      </mask>
      <g mask="url(#mask192_92_8325)">
        <mask id="mask193_92_8325" style="mask-type:luminance" maskUnits="userSpaceOnUse" x="-18" y="0" width="98" height="100">
          <path d="M-13.8075 0.566406L79.0819 3.97384L75.5948 99.2166L-17.3008 95.8153L-13.8075 0.566406Z" fill="white"/>
        </mask>
        <g mask="url(#mask193_92_8325)">
          <path d="M7.26407 46.9227L6.93926 46.9104C6.7125 46.9043 6.5409 46.7204 6.54703 46.4937C6.55316 46.2731 6.74315 46.1015 6.96377 46.1076L7.29471 46.1198C7.52146 46.1321 7.69306 46.3159 7.68693 46.5366C7.67468 46.7572 7.49082 46.9349 7.26407 46.9227Z" fill="#bbbbbb"/>
        </g>
      </g>
    </g>
  </g>
  <mask id="mask194_92_8325" style="mask-type:luminance" maskUnits="userSpaceOnUse" x="60" y="44" width="13" height="6">
    <path d="M60.0703 44.6738H72.6214V49.3805H60.0703V44.6738Z" fill="white"/>
  </mask>
  <g mask="url(#mask194_92_8325)">
    <mask id="mask195_92_8325" style="mask-type:luminance" maskUnits="userSpaceOnUse" x="7" y="1" width="66" height="48">
      <path d="M9.08162 1.41016L72.5788 3.73898L70.9425 48.4218L7.44531 46.0929L9.08162 1.41016Z" fill="white"/>
    </mask>
    <g mask="url(#mask195_92_8325)">
      <mask id="mask196_92_8325" style="mask-type:luminance" maskUnits="userSpaceOnUse" x="6" y="1" width="68" height="49">
        <path d="M8.46436 1.37891L73.1383 3.75063L71.4591 49.6101L6.78516 47.2384L8.46436 1.37891Z" fill="white"/>
      </mask>
      <g mask="url(#mask196_92_8325)">
        <mask id="mask197_92_8325" style="mask-type:luminance" maskUnits="userSpaceOnUse" x="-18" y="0" width="98" height="100">
          <path d="M-13.8075 0.568359L79.0819 3.9758L75.5948 99.2186L-17.3008 95.8173L-13.8075 0.568359Z" fill="white"/>
        </mask>
        <g mask="url(#mask197_92_8325)">
          <path d="M60.6372 65.5739C60.5514 65.5678 60.4656 65.5372 60.3921 65.4759C60.2205 65.3288 60.2021 65.0775 60.3492 64.912C60.4104 64.8324 66.9986 57.1534 68.4142 54.5365C68.9474 53.5498 69.4071 52.5815 69.8483 51.65C70.6205 50.0382 71.2824 48.647 72.1036 47.5807C73.1148 46.2753 74.2547 45.5644 74.935 45.8157C75.2536 45.9383 75.4314 46.2386 75.4068 46.6308C75.3517 47.5746 74.5795 51.0433 74.2669 52.3364C74.2118 52.5509 73.9912 52.6857 73.7767 52.6306C73.556 52.5754 73.4273 52.3609 73.4764 52.1464C73.8318 50.6817 74.5489 47.3907 74.5979 46.5817C74.5979 46.5756 74.5979 46.5756 74.5979 46.5695C74.3344 46.594 73.5806 46.9924 72.7471 48.071C71.9749 49.0699 71.3314 50.4243 70.5837 51.9932C70.1364 52.937 69.6706 53.9114 69.1251 54.9165C67.6727 57.613 61.2378 65.1143 60.962 65.433C60.8823 65.531 60.7598 65.5739 60.6372 65.5739Z" fill="#bbbbbb"/>
        </g>
      </g>
    </g>
  </g>
  <mask id="mask198_92_8325" style="mask-type:luminance" maskUnits="userSpaceOnUse" x="64" y="35" width="9" height="9">
    <path d="M64.7734 35.2598H72.6179V43.1042H64.7734V35.2598Z" fill="white"/>
  </mask>
  <g mask="url(#mask198_92_8325)">
    <mask id="mask199_92_8325" style="mask-type:luminance" maskUnits="userSpaceOnUse" x="7" y="1" width="66" height="48">
      <path d="M9.08552 1.4082L72.5828 3.73703L70.9464 48.4198L7.44922 46.091L9.08552 1.4082Z" fill="white"/>
    </mask>
    <g mask="url(#mask199_92_8325)">
      <mask id="mask200_92_8325" style="mask-type:luminance" maskUnits="userSpaceOnUse" x="6" y="1" width="68" height="49">
        <path d="M8.46045 1.38281L73.1344 3.75454L71.4552 49.614L6.78125 47.2423L8.46045 1.38281Z" fill="white"/>
      </mask>
      <g mask="url(#mask200_92_8325)">
        <mask id="mask201_92_8325" style="mask-type:luminance" maskUnits="userSpaceOnUse" x="-18" y="0" width="98" height="100">
          <path d="M-13.8115 0.572266L79.078 3.9797L75.5909 99.2225L-17.3047 95.8212L-13.8115 0.572266Z" fill="white"/>
        </mask>
        <g mask="url(#mask201_92_8325)">
          <path d="M66.9541 38.2308C67.1625 38.4453 67.3402 38.6966 67.4812 38.9724C67.6283 39.2481 67.7263 39.5362 67.7876 39.8303C68.235 39.4136 68.7988 39.1256 69.3994 39.003C68.9765 38.5618 68.6885 38.0041 68.5659 37.4035C68.1186 37.8202 67.5547 38.1082 66.9541 38.2308ZM67.2973 41.724C67.2606 41.724 67.2238 41.7118 67.187 41.7057C67.0093 41.6444 66.899 41.4789 66.9051 41.3073C66.9051 41.2705 66.9112 41.2338 66.9235 41.197C67.1196 40.578 67.0645 39.9161 66.7642 39.3401C66.4639 38.764 65.9552 38.335 65.324 38.1389C65.324 38.1389 65.3178 38.1389 65.3178 38.1328C65.3117 38.1328 65.3117 38.1328 65.3117 38.1328H65.3056C65.1033 38.0592 64.9992 37.8386 65.0604 37.6363C65.0727 37.6057 65.085 37.5812 65.0972 37.5567C65.1891 37.3912 65.3914 37.3115 65.5691 37.3728C65.5752 37.3728 65.5752 37.3728 65.5752 37.3728C66.8622 37.7773 68.2473 37.0725 68.6579 35.7917C68.713 35.6201 68.8785 35.5098 69.0501 35.5098C69.1052 35.5159 69.1298 35.5159 69.1665 35.5282C69.2217 35.5465 69.2707 35.5772 69.3136 35.6139C69.4239 35.712 69.473 35.8652 69.4362 36.0184C69.4301 36.0246 69.4301 36.0307 69.4301 36.0368C69.0194 37.3177 69.7365 38.6904 71.0235 39.0949C71.2012 39.1501 71.3115 39.3156 71.3054 39.4933C71.3054 39.5301 71.2992 39.5668 71.287 39.6036C71.2196 39.812 70.9928 39.9284 70.7783 39.861C69.4913 39.4565 68.1063 40.1613 67.6957 41.4421C67.6405 41.6199 67.4689 41.7302 67.2973 41.724Z" fill="#bbbbbb"/>
        </g>
      </g>
    </g>
  </g>
  <mask id="mask202_92_8325" style="mask-type:luminance" maskUnits="userSpaceOnUse" x="28" y="85" width="18" height="9">
    <path d="M28.7031 85.4648H45.9609V93.3093H28.7031V85.4648Z" fill="white"/>
  </mask>
  <g mask="url(#mask202_92_8325)">
    <mask id="mask203_92_8325" style="mask-type:luminance" maskUnits="userSpaceOnUse" x="29" y="81" width="17" height="16">
      <path d="M45.3416 89.1475L38.1529 96.9246L29.5117 88.9392L36.7004 81.1621L45.3416 89.1475Z" fill="white"/>
    </mask>
    <g mask="url(#mask203_92_8325)">
      <mask id="mask204_92_8325" style="mask-type:luminance" maskUnits="userSpaceOnUse" x="27" y="77" width="21" height="21">
        <path d="M47.0051 87.3486L37.4202 97.718L27.0508 88.1392L36.6357 77.7637L47.0051 87.3486Z" fill="white"/>
      </mask>
      <g mask="url(#mask204_92_8325)">
        <mask id="mask205_92_8325" style="mask-type:luminance" maskUnits="userSpaceOnUse" x="27" y="77" width="21" height="21">
          <path d="M47.0051 87.3525L37.4202 97.7219L27.0508 88.1431L36.6357 77.7676L47.0051 87.3525Z" fill="white"/>
        </mask>
        <g mask="url(#mask205_92_8325)">
          <path d="M27.5304 87.6212C27.794 87.3393 28.2352 87.3209 28.5232 87.5844C33.3831 92.0766 41.0008 91.7763 45.493 86.9164C45.7565 86.6284 46.2039 86.61 46.4858 86.8735C46.7739 87.1371 46.7923 87.5844 46.5287 87.8663C45.2969 89.1962 43.8444 90.2503 42.2081 90.9919C40.627 91.7028 38.9417 92.1011 37.2012 92.1685C35.4607 92.2359 33.7508 91.9724 32.1207 91.3841C30.4292 90.7774 28.8971 89.8458 27.5672 88.614C27.2853 88.3505 27.2669 87.9092 27.5304 87.6212Z" fill="#BBBBBB"/>
        </g>
      </g>
    </g>
  </g>
  <mask id="mask206_92_8325" style="mask-type:luminance" maskUnits="userSpaceOnUse" x="41" y="68" width="16" height="5">
    <path d="M41.2422 68.207H56.9311V72.9137H41.2422V68.207Z" fill="white"/>
  </mask>
  <g mask="url(#mask206_92_8325)">
    <mask id="mask207_92_8325" style="mask-type:luminance" maskUnits="userSpaceOnUse" x="42" y="62" width="14" height="15">
      <path d="M55.8596 69.324L49.3757 76.1451L42.5547 69.6611L49.0386 62.834L55.8596 69.324Z" fill="white"/>
    </mask>
    <g mask="url(#mask207_92_8325)">
      <mask id="mask208_92_8325" style="mask-type:luminance" maskUnits="userSpaceOnUse" x="42" y="62" width="14" height="15">
        <path d="M55.8635 69.326L49.3796 76.147L42.5586 69.6631L49.0425 62.8359L55.8635 69.326Z" fill="white"/>
      </mask>
      <g mask="url(#mask208_92_8325)">
        <mask id="mask209_92_8325" style="mask-type:luminance" maskUnits="userSpaceOnUse" x="42" y="62" width="14" height="15">
          <path d="M55.8596 69.328L49.3757 76.149L42.5547 69.665L49.0386 62.8379L55.8596 69.328Z" fill="white"/>
        </mask>
        <g mask="url(#mask209_92_8325)">
          <path d="M42.8789 69.3186C43.0566 69.1348 43.3569 69.1286 43.5407 69.3064C46.7459 72.3461 51.8203 72.2174 54.8662 69.0183C55.0439 68.8283 55.3381 68.8222 55.528 68.9999C55.7119 69.1777 55.718 69.4718 55.5403 69.6618C54.713 70.5382 53.7324 71.2246 52.6354 71.7026C51.5752 72.1622 50.4475 72.4135 49.2892 72.4442C48.1248 72.4687 46.9911 72.2787 45.9063 71.8742C44.7848 71.4513 43.7736 70.814 42.8972 69.9866C42.7073 69.8028 42.7011 69.5086 42.8789 69.3186Z" fill="#BBBBBB"/>
        </g>
      </g>
    </g>
  </g>
  <mask id="mask210_92_8325" style="mask-type:luminance" maskUnits="userSpaceOnUse" x="17" y="68" width="15" height="5">
    <path d="M17.7031 68.207H31.8232V72.9137H17.7031V68.207Z" fill="white"/>
  </mask>
  <g mask="url(#mask210_92_8325)">
    <mask id="mask211_92_8325" style="mask-type:luminance" maskUnits="userSpaceOnUse" x="18" y="62" width="14" height="15">
      <path d="M31.7307 69.324L25.2468 76.1451L18.4258 69.6611L24.9097 62.834L31.7307 69.324Z" fill="white"/>
    </mask>
    <g mask="url(#mask211_92_8325)">
      <mask id="mask212_92_8325" style="mask-type:luminance" maskUnits="userSpaceOnUse" x="18" y="62" width="14" height="15">
        <path d="M31.7385 69.326L25.2546 76.147L18.4336 69.6631L24.9175 62.8359L31.7385 69.326Z" fill="white"/>
      </mask>
      <g mask="url(#mask212_92_8325)">
        <mask id="mask213_92_8325" style="mask-type:luminance" maskUnits="userSpaceOnUse" x="18" y="62" width="14" height="15">
          <path d="M31.7346 69.328L25.2507 76.149L18.4297 69.665L24.9136 62.8379L31.7346 69.328Z" fill="white"/>
        </mask>
        <g mask="url(#mask213_92_8325)">
          <path d="M18.7516 69.3186C18.9355 69.1348 19.2297 69.1286 19.4196 69.3064C22.6187 72.3461 27.6992 72.2174 30.739 69.0183C30.9167 68.8283 31.2109 68.8222 31.4008 68.9999C31.5847 69.1777 31.5969 69.4718 31.4192 69.6618C30.5857 70.5382 29.6052 71.2246 28.5082 71.7026C27.448 72.1622 26.3203 72.4135 25.162 72.4442C24.0038 72.4687 22.8639 72.2787 21.7791 71.8742C20.6576 71.4513 19.6464 70.814 18.77 69.9866C18.5862 69.8028 18.5739 69.5086 18.7516 69.3186Z" fill="#BBBBBB"/>
        </g>
      </g>
    </g>
  </g>
  <mask id="mask214_92_8325" style="mask-type:luminance" maskUnits="userSpaceOnUse" x="6" y="58" width="2" height="18">
    <path d="M6.72656 58.1621H7.79905V75.8121H6.72656V58.1621Z" fill="white"/>
  </mask>
  <g mask="url(#mask214_92_8325)">
    <path d="M16.2048 58.1699C14.9362 58.1699 13.7105 58.7215 12.73 59.5243C11.7494 60.3271 10.9895 61.369 10.3398 62.4476C9.86183 63.2443 9.42058 64.1636 9.65959 65.0583C10.7321 63.1401 12.0742 61.3077 13.9311 60.1127C14.5317 59.7266 15.1875 59.4079 15.8861 59.2853C16.5909 59.1627 17.3508 59.2485 17.9576 59.6224C18.7788 60.1188 19.2323 61.0871 19.3058 62.037C19.3794 62.993 19.1097 63.943 18.7543 64.8316C18.7175 64.9174 18.6807 65.0032 18.6439 65.089C17.0873 68.7293 13.9373 71.5729 10.3153 73.2215C10.0334 73.3502 8.45228 74.1285 8.23778 74.3552C8.02941 74.5759 7.44721 75.152 7.58816 75.4277C7.7904 75.8016 9.75152 75.0416 10.1683 74.9375C10.7627 74.7842 11.6513 74.3798 12.1845 74.0733C13.8882 73.0867 15.5307 71.9651 16.9096 70.5678C18.2946 69.1706 19.41 67.473 19.9371 65.5854C20.7399 62.6682 20.0474 58.1699 16.2048 58.1699Z" fill="#BBBBBB"/>
  </g>
  <mask id="mask215_92_8325" style="mask-type:luminance" maskUnits="userSpaceOnUse" x="0" y="58" width="8" height="18">
    <path d="M0.742188 58.7949H7.8022V75.8137H0.742188V58.7949Z" fill="white"/>
  </mask>
  <g mask="url(#mask215_92_8325)">
    <path d="M2.69165 67.1682C2.30555 65.8015 2.19524 64.3736 2.44651 62.9763C2.56295 62.3206 2.77745 61.6464 3.25547 61.1745C4.19925 60.2491 5.22271 60.8497 6.0378 61.5361C6.38712 61.8364 6.73032 62.1428 7.06125 62.4676C7.72313 63.105 8.33598 63.7975 8.8998 64.5268C8.9427 63.2521 8.28695 62.0325 7.39832 61.1132C6.87127 60.5617 6.24004 60.0898 5.52913 59.814C4.81823 59.5321 4.00927 59.4647 3.27998 59.6976C2.23814 60.0285 1.45982 60.9478 1.09824 61.9774C0.736661 63.0008 0.755044 64.1285 0.908257 65.2071C1.46595 69.117 3.92347 72.7145 7.37381 74.6694C6.89579 73.3457 5.78653 72.3651 4.88564 71.2804C3.8867 70.0792 3.12064 68.6635 2.69165 67.1682Z" fill="#BBBBBB"/>
  </g>
  <mask id="mask216_92_8325" style="mask-type:luminance" maskUnits="userSpaceOnUse" x="67" y="58" width="7" height="18">
    <path d="M67.0156 58.7949H73.7079V75.8137H67.0156V58.7949Z" fill="white"/>
  </mask>
  <g mask="url(#mask216_92_8325)">
    <path d="M71.7526 67.1682C72.1448 65.8015 72.2551 64.3736 71.9977 62.9763C71.8813 62.3206 71.6668 61.6464 71.1888 61.1745C70.2511 60.2491 69.2215 60.8497 68.4064 61.5361C68.0571 61.8364 67.7139 62.1428 67.383 62.4676C66.7272 63.105 66.1083 63.7975 65.5444 64.5268C65.5077 63.2521 66.1634 62.0325 67.0459 61.1132C67.5791 60.5617 68.2042 60.0898 68.9151 59.814C69.6321 59.5321 70.4411 59.4647 71.1704 59.6976C72.2122 60.0285 72.9906 60.9478 73.346 61.9774C73.7076 63.0008 73.6953 64.1285 73.5421 65.2071C72.9783 69.117 70.5208 72.7145 67.0704 74.6694C67.5485 73.3457 68.6577 72.3651 69.5586 71.2804C70.5575 70.0792 71.3236 68.6635 71.7526 67.1682Z" fill="#BBBBBB"/>
  </g>
  <path d="M6.48334 111.511C6.34852 111.492 6.17692 111.45 5.96855 111.388C5.75405 111.339 5.58246 111.272 5.45376 111.192C5.89501 109.93 6.21369 108.912 6.4098 108.128C6.60591 107.356 6.753 106.584 6.85105 105.799C6.63655 105.719 6.39754 105.615 6.14015 105.48C5.87662 105.352 5.60084 105.211 5.30667 105.064C4.74898 105.572 4.22806 106.044 3.73778 106.485C3.25976 106.939 2.80625 107.374 2.365 107.785C2.24856 107.699 2.12599 107.589 1.99729 107.442C1.88085 107.294 1.78279 107.178 1.70312 107.098C2.25469 106.59 2.69594 106.185 3.02688 105.873C3.37007 105.548 3.70101 105.205 4.03195 104.843C5.09218 103.752 5.90114 102.87 6.45883 102.196C7.02878 101.528 7.68453 100.712 8.41994 99.7441C8.92248 99.8116 9.42502 99.9648 9.91529 100.21C10.4178 100.455 10.8591 100.761 11.239 101.117C11.9071 101.773 12.2686 102.459 12.3177 103.176C12.3789 103.899 12.1338 104.549 11.5822 105.137C11.092 105.646 10.5281 105.983 9.89078 106.142C9.26568 106.289 8.56703 106.277 7.78258 106.093C7.73355 106.78 7.59873 107.57 7.39036 108.471C7.19425 109.384 6.88782 110.395 6.48334 111.511ZM9.13085 100.798C8.6038 101.436 8.1319 101.999 7.70904 102.49C7.29843 102.968 6.87557 103.433 6.43431 103.887C6.31787 103.985 6.21369 104.083 6.11563 104.181C6.02984 104.279 5.94404 104.377 5.84598 104.475C6.92459 105.082 7.83774 105.395 8.59154 105.407C9.3576 105.425 10.0195 105.137 10.5772 104.549C11.0491 104.059 11.2881 103.568 11.2881 103.078C11.3003 102.575 11.0797 102.097 10.6262 101.656C10.4117 101.448 10.1727 101.276 9.91529 101.141C9.65177 100.994 9.38824 100.884 9.13085 100.798Z" fill="#BBBBBB"/>
  <path d="M15.1971 112.156C15.3932 112.352 15.6139 112.561 15.859 112.769C16.1164 112.965 16.4044 113.149 16.717 113.308C16.7967 113.357 16.8886 113.406 16.9866 113.456C17.097 113.505 17.195 113.541 17.2808 113.554C17.4769 113.345 17.6363 113.149 17.7711 112.965C17.9182 112.788 18.0407 112.61 18.1388 112.426C18.3165 112.07 18.3901 111.782 18.3594 111.568C18.3227 111.341 18.1694 111.151 17.8937 111.004C17.5505 110.808 17.1337 110.826 16.6435 111.053C16.1532 111.268 15.669 111.635 15.1971 112.156ZM16.9866 115.417C17.097 115.515 17.2073 115.637 17.3053 115.784C17.4156 115.931 17.4892 116.079 17.526 116.226C17.1337 116.618 16.5944 116.869 15.908 116.986C15.2216 117.096 14.6149 117.016 14.094 116.74C13.4199 116.379 13.0276 115.839 12.9173 115.122C12.8009 114.387 12.9786 113.578 13.4566 112.696C13.9959 111.703 14.7559 110.967 15.7364 110.489C16.717 109.999 17.5811 109.962 18.3349 110.367C18.8252 110.63 19.1255 110.998 19.2419 111.47C19.3706 111.93 19.2971 112.426 19.0213 112.965C18.8742 113.247 18.6904 113.517 18.482 113.774C18.2675 114.019 18.0407 114.252 17.7956 114.461C17.5995 114.412 17.3666 114.35 17.1092 114.264C16.8641 114.166 16.5699 114.019 16.2267 113.823C15.9632 113.695 15.6997 113.529 15.4423 113.333C15.1787 113.125 14.952 112.904 14.7559 112.671C14.6885 112.757 14.6333 112.855 14.5843 112.965C14.5353 113.063 14.4862 113.155 14.4372 113.235C14.0756 113.891 13.8979 114.479 13.8979 115C13.9101 115.521 14.1185 115.889 14.5107 116.103C14.8355 116.281 15.2462 116.305 15.7364 116.177C16.2267 116.042 16.6435 115.79 16.9866 115.417Z" fill="#BBBBBB"/>
  <path d="M26.7182 117.147C27.2391 117.784 27.5578 118.299 27.6742 118.691C27.8029 119.083 27.809 119.476 27.6987 119.868C27.5333 120.505 27.1962 120.971 26.6937 121.265C26.185 121.571 25.6212 121.645 25.0022 121.486C24.3648 121.32 23.8991 120.953 23.6049 120.383C23.323 119.813 23.2862 119.151 23.4823 118.397C23.6294 118.397 23.7826 118.409 23.9481 118.421C24.1074 118.421 24.2484 118.458 24.3648 118.52C24.1994 119.108 24.181 119.61 24.3158 120.015C24.4629 120.419 24.7632 120.683 25.2228 120.799C25.5476 120.879 25.8357 120.83 26.0808 120.652C26.326 120.487 26.4975 120.223 26.5956 119.843C26.6753 119.537 26.6691 119.224 26.5711 118.912C26.473 118.605 26.185 118.152 25.7131 117.563C25.1738 116.914 24.8367 116.381 24.708 115.97C24.5916 115.566 24.5916 115.149 24.708 114.72C24.8551 114.15 25.1493 113.739 25.5905 113.494C26.0318 113.237 26.5466 113.175 27.1349 113.323C27.6865 113.47 28.0787 113.758 28.3116 114.181C28.5567 114.591 28.6548 115.179 28.6057 115.946C28.4403 115.946 28.2871 115.946 28.14 115.946C28.0052 115.946 27.8581 115.939 27.6987 115.921C27.7478 115.351 27.711 114.928 27.6007 114.646C27.4842 114.352 27.2636 114.156 26.9388 114.058C26.6569 113.997 26.4118 114.033 26.2034 114.181C25.9889 114.328 25.8418 114.548 25.7621 114.842C25.6763 115.155 25.6947 115.474 25.8112 115.798C25.9215 116.129 26.2279 116.577 26.7182 117.147Z" fill="#BBBBBB"/>
  <path d="M36.2872 112.072C36.4159 112.109 36.5323 112.14 36.6304 112.17C36.7407 112.189 36.8387 112.232 36.9245 112.293C36.8081 112.458 36.6917 112.685 36.5814 112.979C36.4649 113.261 36.3669 113.531 36.2872 113.788C36.1891 113.807 36.0543 113.813 35.895 113.813C35.7479 113.813 35.5824 113.807 35.4047 113.788C35.4047 113.709 35.3924 113.635 35.3802 113.568C35.3802 113.488 35.3802 113.414 35.3802 113.347C35.3924 113.151 35.4292 112.943 35.4782 112.71C35.5395 112.483 35.613 112.293 35.6988 112.146C35.8092 112.097 35.9072 112.072 35.993 112.072C36.0727 112.072 36.1707 112.072 36.2872 112.072ZM35.037 115.431C35.1473 115.369 35.2637 115.326 35.3802 115.308C35.4905 115.277 35.613 115.271 35.7479 115.284C35.8275 115.284 35.9011 115.296 35.9685 115.308C36.0298 115.308 36.0972 115.32 36.1646 115.333C35.9195 116.332 35.7234 117.49 35.5763 118.814C35.4415 120.125 35.3863 121.363 35.4047 122.54C35.3373 122.552 35.2576 122.57 35.1595 122.589C35.0615 122.601 34.9512 122.601 34.8409 122.589C34.8041 122.589 34.7673 122.589 34.7183 122.589C34.6693 122.589 34.6202 122.576 34.5712 122.564C34.4548 121.357 34.4364 120.125 34.5222 118.863C34.6202 117.588 34.7918 116.448 35.037 115.431Z" fill="#BBBBBB"/>
  <path d="M44.4535 122.835C44.3677 122.848 44.2329 122.884 44.0368 122.933C43.853 122.995 43.6936 123.038 43.5465 123.056C43.1175 120.997 42.7743 119.103 42.5169 117.369C42.2718 115.622 42.088 113.833 41.9531 112C42.0389 111.951 42.1431 111.902 42.2718 111.853C42.3882 111.804 42.4924 111.773 42.5905 111.755C42.6702 111.743 42.7498 111.73 42.8356 111.73C42.9337 111.73 43.0379 111.743 43.1543 111.755C43.185 113.214 43.3136 114.93 43.5465 116.903C43.7917 118.882 44.092 120.862 44.4535 122.835Z" fill="#BBBBBB"/>
  <path d="M49.8148 110.053C49.9312 110.022 50.0476 110.004 50.158 110.004C50.2744 109.992 50.3786 109.998 50.4766 110.028C50.446 110.225 50.4215 110.482 50.4031 110.788C50.3908 111.101 50.4031 111.395 50.4521 111.671C50.3541 111.72 50.2315 111.781 50.0844 111.843C49.9373 111.892 49.778 111.934 49.5941 111.965C49.5451 111.904 49.5145 111.836 49.4961 111.769C49.4654 111.708 49.4348 111.64 49.398 111.573C49.349 111.377 49.3183 111.168 49.3 110.935C49.2693 110.709 49.2632 110.507 49.2755 110.323C49.3735 110.243 49.4654 110.188 49.5451 110.151C49.6125 110.12 49.7044 110.09 49.8148 110.053ZM49.8393 113.657C49.9251 113.558 50.0109 113.479 50.1089 113.411C50.207 113.35 50.3234 113.289 50.4521 113.24C50.5195 113.228 50.5931 113.209 50.6727 113.191C50.7402 113.179 50.8076 113.166 50.8689 113.166C50.9669 114.184 51.1875 115.323 51.5307 116.598C51.8739 117.873 52.2478 119.062 52.6584 120.153C52.6093 120.202 52.5358 120.251 52.4377 120.3C52.3519 120.349 52.2662 120.392 52.1681 120.422C52.1313 120.441 52.0946 120.459 52.0455 120.471C51.9965 120.49 51.9352 120.49 51.8739 120.471C51.3653 119.381 50.9363 118.228 50.5747 117.015C50.2192 115.808 49.9741 114.686 49.8393 113.657Z" fill="#BBBBBB"/>
  <path d="M57.9209 114.372C57.3203 113.311 57.0629 112.306 57.1609 111.356C57.2467 110.413 57.6696 109.714 58.4357 109.273C59.0608 108.917 59.6859 108.874 60.3232 109.15C60.9729 109.414 61.5367 109.947 62.0147 110.744C62.6827 111.92 63.0075 113.017 62.9953 114.028C62.9769 115.046 62.5908 115.769 61.8431 116.21C61.169 116.59 60.4826 116.602 59.7839 116.259C59.0853 115.916 58.4602 115.291 57.9209 114.372ZM61.3283 111.822C60.838 110.989 60.36 110.437 59.9065 110.155C59.4653 109.861 59.0363 109.837 58.6073 110.082C58.215 110.315 58.0373 110.78 58.068 111.479C58.1047 112.184 58.3376 112.925 58.7789 113.71C59.2079 114.433 59.6736 114.96 60.2007 115.303C60.7216 115.646 61.1874 115.695 61.598 115.45C61.9718 115.242 62.125 114.776 62.0637 114.053C62.0147 113.336 61.7696 112.594 61.3283 111.822Z" fill="#BBBBBB"/>
  <path d="M67.4664 107.961C66.6207 107.097 66.1181 106.19 65.9711 105.24C65.824 104.296 66.0691 103.512 66.7065 102.886C67.2151 102.384 67.8219 102.176 68.5205 102.274C69.2069 102.359 69.8749 102.733 70.5306 103.401C71.4744 104.37 72.0628 105.35 72.2957 106.343C72.5408 107.342 72.3508 108.145 71.7318 108.745C71.1925 109.285 70.5306 109.481 69.7462 109.334C68.9801 109.174 68.2202 108.715 67.4664 107.961ZM70.1384 104.627C69.452 103.941 68.8637 103.524 68.3734 103.377C67.8709 103.217 67.4419 103.303 67.0987 103.646C66.7739 103.959 66.7065 104.455 66.9026 105.142C67.0987 105.816 67.5093 106.465 68.1283 107.103C68.7166 107.691 69.3049 108.083 69.8933 108.279C70.4939 108.476 70.9719 108.402 71.3151 108.059C71.6093 107.765 71.6399 107.287 71.4131 106.613C71.1803 105.926 70.7574 105.264 70.1384 104.627Z" fill="#BBBBBB"/>
</svg>